#120 vertices, 160 faces
v 0.54559600 0.88279400 0.0000000e+0
v 0.16859900 0.88279400 -0.51889300
v -0.44139700 0.88279300 -0.32069300
v -0.44139700 0.88279300 0.32069300
v 0.16859900 0.88279400 0.51889300
v 0.71419500 0.54559700 -0.51889300
v 0.98699300 0.0000000e+0 -0.32069400
v 0.98699300 0.0000000e+0 0.32069400
v 0.71419500 0.54559700 0.51889300
v 0.60999600 0.0000000e+0 0.83958600
v 0.0000000e+0 0.0000000e+0 1.03778600
v -0.27279800 0.54559600 0.83958600
v -0.60999600 0.0000000e+0 0.83958600
v -0.98699300 0.0000000e+0 0.32069400
v -0.88279400 0.54559600 0.0000000e+0
v -0.98699300 0.0000000e+0 -0.32069400
v -0.60999600 0.0000000e+0 -0.83958600
v -0.27279800 0.54559600 -0.83958600
v 0.0000000e+0 0.0000000e+0 -1.03778600
v 0.60999600 0.0000000e+0 -0.83958600
v -0.71419500 -0.54559700 0.51889300
v -0.54559600 -0.88279400 0.0000000e+0
v -0.71419500 -0.54559700 -0.51889300
v -0.16859900 -0.88279400 -0.51889300
v 0.27279800 -0.54559600 -0.83958600
v 0.44139700 -0.88279300 -0.32069300
v 0.88279400 -0.54559600 0.0000000e+0
v 0.44139700 -0.88279300 0.32069300
v 0.27279800 -0.54559600 0.83958600
v -0.16859900 -0.88279400 0.51889300
v 0.15314300 1.16628600 0.47132600
v -0.40093400 1.16628600 0.29129500
v -0.40093400 1.16628600 -0.29129500
v 0.15314300 1.16628600 -0.47132600
v 0.49558100 1.16628600 0.0000000e+0
v 0.97467000 0.65855400 -0.47132600
v 1.22246100 0.16297300 -0.29129500
v 1.22246100 0.16297300 0.29129500
v 0.97467000 0.65855400 0.47132600
v 0.82152700 0.96484100 0.0000000e+0
v 0.74944700 0.65855400 0.78131900
v 0.65480000 0.16297300 1.07261400
v 0.10072300 0.16297300 1.25264500
v -0.14706800 0.65855400 1.07261400
v 0.25386600 0.96484100 0.78131900
v -0.51148600 0.65855400 0.95420800
v -0.81777300 0.16297300 0.95420800
v -1.16021100 0.16297300 0.48288200
v -1.06556300 0.65855400 0.19158600
v -0.66463000 0.96484100 0.48288200
v -1.06556300 0.65855400 -0.19158600
v -1.16021100 0.16297300 -0.48288200
v -0.81777300 0.16297300 -0.95420800
v -0.51148600 0.65855400 -0.95420800
v -0.66463000 0.96484100 -0.48288200
v -0.14706800 0.65855400 -1.07261400
v 0.10072300 0.16297300 -1.25264500
v 0.65480000 0.16297300 -1.07261400
v 0.74944700 0.65855400 -0.78131900
v 0.25386600 0.96484100 -0.78131900
v -0.97467000 -0.65855400 0.47132600
v -0.82152700 -0.96484100 0.0000000e+0
v -0.97467000 -0.65855400 -0.47132600
v -1.22246100 -0.16297300 -0.29129500
v -1.22246100 -0.16297300 0.29129500
v -0.74944700 -0.65855400 -0.78131900
v -0.25386600 -0.96484100 -0.78131900
v 0.14706800 -0.65855400 -1.07261400
v -0.10072300 -0.16297300 -1.25264500
v -0.65480000 -0.16297300 -1.07261400
v 0.81777300 -0.16297300 -0.95420800
v 0.51148600 -0.65855400 -0.95420800
v 0.66463000 -0.96484100 -0.48288200
v 1.06556300 -0.65855400 -0.19158600
v 1.16021100 -0.16297300 -0.48288200
v 1.06556300 -0.65855400 0.19158600
v 0.66463000 -0.96484100 0.48288200
v 0.51148600 -0.65855400 0.95420800
v 0.81777300 -0.16297300 0.95420800
v 1.16021100 -0.16297300 0.48288200
v 0.14706800 -0.65855400 1.07261400
v -0.25386600 -0.96484100 0.78131900
v -0.74944700 -0.65855400 0.78131900
v -0.65480000 -0.16297300 1.07261400
v -0.10072300 -0.16297300 1.25264500
v -0.15314300 -1.16628600 0.47132600
v 0.40093400 -1.16628600 0.29129500
v 0.40093400 -1.16628600 -0.29129500
v -0.15314300 -1.16628600 -0.47132600
v -0.49558100 -1.16628600 0.0000000e+0
v 0.85065100 1.37638200 0.0000000e+0
v 0.26286600 1.37638200 -0.80901700
v -0.68819100 1.37638200 -0.50000000
v -0.68819100 1.37638200 0.50000000
v 0.26286600 1.37638200 0.80901700
v 1.11351600 0.85065100 -0.80901700
v 1.53884200 0.0000000e+0 -0.50000000
v 1.53884200 0.0000000e+0 0.50000000
v 1.11351600 0.85065100 0.80901700
v 0.95105700 0.0000000e+0 1.30901700
v 0.0000000e+0 0.0000000e+0 1.61803400
v -0.42532500 0.85065100 1.30901700
v -0.95105700 0.0000000e+0 1.30901700
v -1.53884200 0.0000000e+0 0.50000000
v -1.37638200 0.85065100 0.0000000e+0
v -1.53884200 0.0000000e+0 -0.50000000
v -0.95105700 0.0000000e+0 -1.30901700
v -0.42532500 0.85065100 -1.30901700
v 0.0000000e+0 0.0000000e+0 -1.61803400
v 0.95105700 0.0000000e+0 -1.30901700
v -1.11351600 -0.85065100 0.80901700
v -0.85065100 -1.37638200 0.0000000e+0
v -1.11351600 -0.85065100 -0.80901700
v -0.26286600 -1.37638200 -0.80901700
v 0.42532500 -0.85065100 -1.30901700
v 0.68819100 -1.37638200 -0.50000000
v 1.37638200 -0.85065100 0.0000000e+0
v 0.68819100 -1.37638200 0.50000000
v 0.42532500 -0.85065100 1.30901700
v -0.26286600 -1.37638200 0.80901700

vn -0.52573148 -0.85065058 0.0000000e+0
vn -0.16245950 -0.85065080 0.50000012
vn 0.42532564 -0.85065080 0.30901670
vn 0.42532564 -0.85065080 -0.30901670
vn -0.16245950 -0.85065080 -0.50000012
vn -0.68819111 -0.52573112 0.49999979
vn -0.95105654 -5.6710130e-7 0.30901692
vn -0.95105654 -5.6710130e-7 -0.30901692
vn -0.68819111 -0.52573112 -0.49999979
vn -0.58778526 -7.0134924e-7 -0.80901699
vn 0.0000000e+0 0.0000000e+0 -1.00000000
vn 0.26286558 -0.52573092 -0.80901711
vn 0.58778526 7.0134924e-7 -0.80901699
vn 0.95105654 5.6710130e-7 -0.30901692
vn 0.85065114 -0.52573058 2.7526019e-17
vn 0.95105654 5.6710130e-7 0.30901692
vn 0.58778526 7.0134924e-7 0.80901699
vn 0.26286558 -0.52573092 0.80901711
vn -6.8815069e-18 -2.7526028e-17 1.00000000
vn -0.58778526 -7.0134924e-7 0.80901699
vn 0.68819111 0.52573112 -0.49999979
vn 0.52573148 0.85065058 0.0000000e+0
vn 0.68819111 0.52573112 0.49999979
vn 0.16245950 0.85065080 0.50000012
vn -0.26286558 0.52573092 0.80901711
vn -0.42532564 0.85065080 0.30901670
vn -0.85065114 0.52573058 -2.7526019e-17
vn -0.42532564 0.85065080 -0.30901670
vn -0.26286558 0.52573092 -0.80901711
vn 0.16245950 0.85065080 -0.50000012
vn -0.27407386 0.46191936 -0.84351290
vn 0.71753516 0.46191916 -0.52131946
vn 0.71753516 0.46191916 0.52131946
vn -0.27407386 0.46191936 0.84351290
vn -0.88692220 0.46191884 0.0000000e+0
vn 0.53572213 -3.8562909e-2 0.84351331
vn 9.2261297e-2 0.84835942 0.52131963
vn 9.2261297e-2 0.84835942 -0.52131963
vn 0.53572213 -3.8562909e-2 -0.84351331
vn 0.80979623 -0.58671123 0.0000000e+0
vn -0.63668166 -3.8563163e-2 0.77016190
vn -0.46729445 0.84835904 0.24884299
vn 0.52431501 0.84835930 -7.3350333e-2
vn 0.96777593 -3.8562585e-2 0.24884269
vn 0.25024110 -0.58671079 0.77016222
vn -0.92921390 -3.8561125e-2 -0.36752492
vn -0.38106577 0.84835952 -0.36752552
vn 0.23178266 0.84835948 0.47598633
vn 6.2395655e-2 -3.8562159e-2 0.99730624
vn -0.65513972 -0.58670956 0.47598723
vn 6.2395655e-2 -3.8562159e-2 -0.99730624
vn 0.23178266 0.84835948 -0.47598633
vn -0.38106577 0.84835952 0.36752552
vn -0.92921390 -3.8561125e-2 0.36752492
vn -0.65513972 -0.58670956 -0.47598723
vn 0.96777593 -3.8562585e-2 -0.24884269
vn 0.52431501 0.84835930 7.3350333e-2
vn -0.46729445 0.84835904 -0.24884299
vn -0.63668166 -3.8563163e-2 -0.77016190
vn 0.25024110 -0.58671079 -0.77016222
vn -0.53572213 3.8562909e-2 -0.84351331
vn -0.80979623 0.58671123 0.0000000e+0
vn -0.53572213 3.8562909e-2 0.84351331
vn -9.2261297e-2 -0.84835942 0.52131963
vn -9.2261297e-2 -0.84835942 -0.52131963
vn 0.63668166 3.8563163e-2 -0.77016190
vn -0.25024110 0.58671079 -0.77016222
vn -0.96777593 3.8562585e-2 -0.24884269
vn -0.52431501 -0.84835930 7.3350333e-2
vn 0.46729445 -0.84835904 -0.24884299
vn 0.38106577 -0.84835952 0.36752552
vn 0.92921390 3.8561125e-2 0.36752492
vn 0.65513972 0.58670956 -0.47598723
vn -6.2395655e-2 3.8562159e-2 -0.99730624
vn -0.23178266 -0.84835948 -0.47598633
vn -6.2395655e-2 3.8562159e-2 0.99730624
vn 0.65513972 0.58670956 0.47598723
vn 0.92921390 3.8561125e-2 -0.36752492
vn 0.38106577 -0.84835952 -0.36752552
vn -0.23178266 -0.84835948 0.47598633
vn -0.96777593 3.8562585e-2 0.24884269
vn -0.25024110 0.58671079 0.77016222
vn 0.63668166 3.8563163e-2 0.77016190
vn 0.46729445 -0.84835904 0.24884299
vn -0.52431501 -0.84835930 -7.3350333e-2
vn 0.27407386 -0.46191936 -0.84351290
vn -0.71753516 -0.46191916 -0.52131946
vn -0.71753516 -0.46191916 0.52131946
vn 0.27407386 -0.46191936 0.84351290
vn 0.88692220 -0.46191884 0.0000000e+0
vn 0.52573140 0.85065063 0.0000000e+0
vn 0.16246012 0.85065073 -0.50000005
vn -0.42532523 0.85065083 -0.30901717
vn -0.42532523 0.85065083 0.30901717
vn 0.16246012 0.85065073 0.50000005
vn 0.68819087 0.52573122 -0.50000001
vn 0.95105653 2.4744766e-7 -0.30901695
vn 0.95105653 2.4744766e-7 0.30901695
vn 0.68819087 0.52573122 0.50000001
vn 0.58778520 -1.9399846e-7 0.80901703
vn 0.0000000e+0 3.0750520e-17 1.00000000
vn -0.26286515 0.52573133 0.80901699
vn -0.58778520 1.9399846e-7 0.80901703
vn -0.95105653 -2.4744766e-7 0.30901695
vn -0.85065072 0.52573125 -3.0750504e-17
vn -0.95105653 -2.4744766e-7 -0.30901695
vn -0.58778520 1.9399846e-7 -0.80901703
vn -0.26286515 0.52573133 -0.80901699
vn 0.0000000e+0 3.0750520e-17 -1.00000000
vn 0.58778520 -1.9399846e-7 -0.80901703
vn -0.68819087 -0.52573122 0.50000001
vn -0.52573140 -0.85065063 0.0000000e+0
vn -0.68819087 -0.52573122 -0.50000001
vn -0.16246012 -0.85065073 -0.50000005
vn 0.26286515 -0.52573133 -0.80901699
vn 0.42532523 -0.85065083 -0.30901717
vn 0.85065072 -0.52573125 3.0750504e-17
vn 0.42532523 -0.85065083 0.30901717
vn 0.26286515 -0.52573133 0.80901699
vn -0.16246012 -0.85065073 0.50000005

s 1
f 1//1 9//9 5//5
f 1//1 35//35 34//34 2//2
f 1//1 40//40 39//39 9//9
f 2//2 6//6 1//1
f 2//2 34//34 33//33 3//3
f 2//2 60//60 59//59 6//6
f 3//3 18//18 2//2
f 3//3 33//33 32//32 4//4
f 3//3 55//55 54//54 18//18
f 4//4 15//15 3//3
f 4//4 32//32 31//31 5//5
f 4//4 50//50 49//49 15//15
f 5//5 12//12 4//4
f 5//5 31//31 35//35 1//1
f 5//5 45//45 44//44 12//12
f 6//6 20//20 7//7
f 6//6 36//36 40//40 1//1
f 6//6 59//59 58//58 20//20
f 7//7 27//27 8//8
f 7//7 37//37 36//36 6//6
f 7//7 75//75 74//74 27//27
f 8//8 10//10 9//9
f 8//8 38//38 37//37 7//7
f 8//8 80//80 79//79 10//10
f 9//9 39//39 38//38 8//8
f 9//9 41//41 45//45 5//5
f 10//10 29//29 11//11
f 10//10 42//42 41//41 9//9
f 10//10 79//79 78//78 29//29
f 11//11 13//13 12//12
f 11//11 43//43 42//42 10//10
f 11//11 85//85 84//84 13//13
f 12//12 44//44 43//43 11//11
f 12//12 46//46 50//50 4//4
f 13//13 21//21 14//14
f 13//13 47//47 46//46 12//12
f 13//13 84//84 83//83 21//21
f 14//14 16//16 15//15
f 14//14 48//48 47//47 13//13
f 14//14 65//65 64//64 16//16
f 15//15 49//49 48//48 14//14
f 15//15 51//51 55//55 3//3
f 16//16 23//23 17//17
f 16//16 52//52 51//51 15//15
f 16//16 64//64 63//63 23//23
f 17//17 19//19 18//18
f 17//17 53//53 52//52 16//16
f 17//17 70//70 69//69 19//19
f 18//18 54//54 53//53 17//17
f 18//18 56//56 60//60 2//2
f 19//19 25//25 20//20
f 19//19 57//57 56//56 18//18
f 19//19 69//69 68//68 25//25
f 20//20 58//58 57//57 19//19
f 20//20 71//71 75//75 7//7
f 21//21 30//30 22//22
f 21//21 61//61 65//65 14//14
f 21//21 83//83 82//82 30//30
f 22//22 24//24 23//23
f 22//22 62//62 61//61 21//21
f 22//22 90//90 89//89 24//24
f 23//23 63//63 62//62 22//22
f 23//23 66//66 70//70 17//17
f 24//24 26//26 25//25
f 24//24 67//67 66//66 23//23
f 24//24 89//89 88//88 26//26
f 25//25 68//68 67//67 24//24
f 25//25 72//72 71//71 20//20
f 26//26 28//28 27//27
f 26//26 73//73 72//72 25//25
f 26//26 88//88 87//87 28//28
f 27//27 74//74 73//73 26//26
f 27//27 76//76 80//80 8//8
f 28//28 30//30 29//29
f 28//28 77//77 76//76 27//27
f 28//28 87//87 86//86 30//30
f 29//29 78//78 77//77 28//28
f 29//29 81//81 85//85 11//11
f 30//30 82//82 81//81 29//29
f 30//30 86//86 90//90 22//22
f 31//31 95//95 91//91 35//35
f 32//32 94//94 95//95 31//31
f 33//33 93//93 94//94 32//32
f 34//34 92//92 93//93 33//33
f 35//35 91//91 92//92 34//34
f 36//36 96//96 91//91 40//40
f 37//37 97//97 96//96 36//36
f 38//38 98//98 97//97 37//37
f 39//39 99//99 98//98 38//38
f 40//40 91//91 99//99 39//39
f 41//41 99//99 95//95 45//45
f 42//42 100//100 99//99 41//41
f 43//43 101//101 100//100 42//42
f 44//44 102//102 101//101 43//43
f 45//45 95//95 102//102 44//44
f 46//46 102//102 94//94 50//50
f 47//47 103//103 102//102 46//46
f 48//48 104//104 103//103 47//47
f 49//49 105//105 104//104 48//48
f 50//50 94//94 105//105 49//49
f 51//51 105//105 93//93 55//55
f 52//52 106//106 105//105 51//51
f 53//53 107//107 106//106 52//52
f 54//54 108//108 107//107 53//53
f 55//55 93//93 108//108 54//54
f 56//56 108//108 92//92 60//60
f 57//57 109//109 108//108 56//56
f 58//58 110//110 109//109 57//57
f 59//59 96//96 110//110 58//58
f 60//60 92//92 96//96 59//59
f 61//61 111//111 104//104 65//65
f 62//62 112//112 111//111 61//61
f 63//63 113//113 112//112 62//62
f 64//64 106//106 113//113 63//63
f 65//65 104//104 106//106 64//64
f 66//66 113//113 107//107 70//70
f 67//67 114//114 113//113 66//66
f 68//68 115//115 114//114 67//67
f 69//69 109//109 115//115 68//68
f 70//70 107//107 109//109 69//69
f 71//71 110//110 97//97 75//75
f 72//72 115//115 110//110 71//71
f 73//73 116//116 115//115 72//72
f 74//74 117//117 116//116 73//73
f 75//75 97//97 117//117 74//74
f 76//76 117//117 98//98 80//80
f 77//77 118//118 117//117 76//76
f 78//78 119//119 118//118 77//77
f 79//79 100//100 119//119 78//78
f 80//80 98//98 100//100 79//79
f 81//81 119//119 101//101 85//85
f 82//82 120//120 119//119 81//81
f 83//83 111//111 120//120 82//82
f 84//84 103//103 111//111 83//83
f 85//85 101//101 103//103 84//84
f 86//86 120//120 112//112 90//90
f 87//87 118//118 120//120 86//86
f 88//88 116//116 118//118 87//87
f 89//89 114//114 116//116 88//88
f 90//90 112//112 114//114 89//89
f 91//91 96//96 92//92
f 92//92 108//108 93//93
f 93//93 105//105 94//94
f 94//94 102//102 95//95
f 95//95 99//99 91//91
f 97//97 110//110 96//96
f 98//98 117//117 97//97
f 99//99 100//100 98//98
f 101//101 119//119 100//100
f 102//102 103//103 101//101
f 104//104 111//111 103//103
f 105//105 106//106 104//104
f 107//107 113//113 106//106
f 108//108 109//109 107//107
f 110//110 115//115 109//109
f 112//112 120//120 111//111
f 113//113 114//114 112//112
f 115//115 116//116 114//114
f 117//117 118//118 116//116
f 119//119 120//120 118//118
