#102 vertices, 200 faces

vn 0.000000 1.000000 0.000000
v 0.000000 2.239349 -0.000000 0.000000 0.000000 0.000000
vn 0.894427 0.447214 0.000000
v 2.002934 1.001467 -0.000000 0.000000 0.000000 0.000000
vn 0.276393 0.447214 0.850651
v 0.618941 1.001467 1.904904 0.000000 0.000000 0.000000
vn -0.723607 0.447214 0.525731
v -1.620408 1.001467 1.177295 0.000000 0.000000 0.000000
vn -0.723607 0.447214 -0.525731
v -1.620408 1.001467 -1.177295 0.000000 0.000000 0.000000
vn 0.276393 0.447214 -0.850651
v 0.618941 1.001467 -1.904904 0.000000 0.000000 0.000000
vn -0.894427 -0.447214 0.000000
v -2.002934 -1.001467 -0.000000 0.000000 0.000000 0.000000
vn -0.276393 -0.447214 -0.850651
v -0.618941 -1.001467 -1.904904 0.000000 0.000000 0.000000
vn 0.723607 -0.447214 -0.525731
v 1.620408 -1.001467 -1.177295 0.000000 0.000000 0.000000
vn 0.723607 -0.447214 0.525731
v 1.620408 -1.001467 1.177295 0.000000 0.000000 0.000000
vn -0.276393 -0.447214 0.850651
v -0.618941 -1.001467 1.904904 0.000000 0.000000 0.000000
vn 0.000000 -1.000000 0.000000
v 0.000000 -2.239349 -0.000000 0.000000 0.000000 0.000000
vn -0.753314 -0.364643 0.547315
v -1.313385 0.442926 0.954230 0.247059 0.498039 0.372549
vn -0.701681 -0.094289 0.706225
v -1.521502 -0.646788 0.313712 0.247059 0.498039 0.372549
vn -0.888491 -0.094289 0.449103
v -0.768528 -0.646788 1.350092 0.247059 0.498039 0.372549
vn -0.010746 0.836858 -0.547315
v -0.983529 0.976645 -0.954230 0.498039 0.498039 0.247059
vn -0.229466 0.669770 -0.706225
v -0.101931 1.650125 -0.313712 0.498039 0.498039 0.247059
vn -0.313010 0.836858 -0.449103
v 0.234809 0.976645 -1.350092 0.498039 0.498039 0.247059
vn 0.454828 -0.094289 -0.885574
v -0.171812 -0.646788 -1.543977 0.501961 1.000000 0.749020
vn 0.287740 -0.364643 -0.885574
v 0.501668 0.442926 -1.543977 0.501961 1.000000 0.749020
vn 0.152563 -0.094289 -0.983786
v 1.046526 -0.646788 -1.148115 0.501961 1.000000 0.749020
vn -0.454828 0.094289 0.885574
v 0.171812 0.646788 1.543977 1.000000 0.501961 0.749020
vn -0.152563 0.094289 0.983786
v -1.046526 0.646788 1.148115 1.000000 0.501961 0.749020
vn -0.287740 0.364643 0.885574
v -0.501668 -0.442926 1.543977 1.000000 0.501961 0.749020
vn -0.152563 0.094289 -0.983786
v -1.046526 0.646788 -1.148115 0.501961 0.501961 1.000000
vn -0.454828 0.094289 -0.885574
v 0.171812 0.646788 -1.543977 0.501961 0.501961 1.000000
vn -0.287740 0.364643 -0.885574
v -0.501668 -0.442926 -1.543977 0.501961 0.501961 1.000000
vn 0.010746 -0.836858 0.547315
v 0.983529 -0.976645 0.954230 1.000000 1.000000 0.000000
vn 0.313010 -0.836858 0.449103
v -0.234809 -0.976645 1.350092 1.000000 1.000000 0.000000
vn 0.229466 -0.669770 0.706225
v 0.101931 -1.650125 0.313712 1.000000 1.000000 0.000000
vn 0.600751 0.669770 -0.436471
v 0.266859 1.650125 -0.193885 0.501961 1.000000 0.749020
vn 0.330397 0.836858 -0.436471
v 1.356574 0.976645 -0.193885 0.419608 0.839216 0.627451
vn 0.517207 0.836858 -0.179349
v 0.603600 0.976645 -1.230265 0.501961 1.000000 0.749020
vn 0.152563 -0.094289 0.983786
v 1.046526 -0.646788 1.148115 1.000000 0.937255 0.501961
vn 0.287740 -0.364643 0.885574
v 0.501668 0.442926 1.543977 1.000000 0.937255 0.501961
vn 0.454828 -0.094289 0.885574
v -0.171812 -0.646788 1.543977 1.000000 0.937255 0.501961
vn 0.888491 0.094289 -0.449103
v 0.768528 0.646788 -1.350092 0.000000 1.000000 0.501961
vn 0.701681 0.094289 -0.706225
v 1.521502 0.646788 -0.313712 0.000000 1.000000 0.501961
vn 0.753314 0.364643 -0.547315
v 1.313385 -0.442926 -0.954230 0.000000 1.000000 0.501961
vn 0.330397 0.836858 0.436471
v 1.356574 0.976645 0.193885 1.000000 0.501961 0.749020
vn 0.600751 0.669770 0.436471
v 0.266859 1.650125 0.193885 1.000000 0.501961 0.749020
vn 0.517207 0.836858 0.179349
v 0.603600 0.976645 1.230265 1.000000 0.501961 0.749020
vn -0.517207 -0.836858 0.179349
v -0.603600 -0.976645 1.230265 1.000000 1.000000 0.501961
vn -0.330397 -0.836858 0.436471
v -1.356574 -0.976645 0.193885 1.000000 1.000000 0.501961
vn -0.600751 -0.669770 0.436471
v -0.266859 -1.650125 0.193885 1.000000 1.000000 0.501961
vn -0.701681 -0.094289 -0.706225
v -1.521502 -0.646788 -0.313712 0.000000 0.000000 1.000000
vn -0.753314 -0.364643 -0.547315
v -1.313385 0.442926 -0.954230 0.000000 0.000000 1.000000
vn -0.888491 -0.094289 -0.449103
v -0.768528 -0.646788 -1.350092 0.000000 0.000000 1.000000
vn -0.523848 0.836858 -0.158910
v -1.211454 0.976645 0.640518 1.000000 0.501961 0.749020
vn -0.742568 0.669770 -0.000000
v -0.329856 1.650125 0.000000 1.000000 0.501961 0.749020
vn -0.523848 0.836858 0.158910
v -1.211454 0.976645 -0.640518 1.000000 0.501961 0.749020
vn 0.313010 -0.836858 -0.449103
v -0.234809 -0.976645 -1.350092 0.498039 0.247059 0.372549
vn 0.010746 -0.836858 -0.547315
v 0.983529 -0.976645 -0.954230 0.498039 0.247059 0.372549
vn 0.229466 -0.669770 -0.706225
v 0.101931 -1.650125 -0.313712 0.498039 0.247059 0.372549
vn 0.523848 -0.836858 0.158910
v 1.211454 -0.976645 -0.640518 1.000000 1.000000 0.501961
vn 0.523848 -0.836858 -0.158910
v 1.211454 -0.976645 0.640518 1.000000 1.000000 0.501961
vn 0.742568 -0.669770 -0.000000
v 0.329856 -1.650125 -0.000000 1.000000 1.000000 0.501961
vn -0.982780 0.094289 -0.158910
v -1.415316 0.646788 0.640518 0.501961 0.501961 1.000000
vn -0.982780 0.094289 0.158910
v -1.415316 0.646788 -0.640518 0.501961 0.501961 1.000000
vn -0.931147 0.364643 0.000000
v -1.623433 -0.442926 -0.000000 0.501961 0.501961 1.000000
vn -0.313010 0.836858 0.449103
v 0.234809 0.976645 1.350092 1.000000 0.000000 0.501961
vn -0.229466 0.669770 0.706225
v -0.101931 1.650125 0.313712 1.000000 0.000000 0.501961
vn -0.010746 0.836858 0.547315
v -0.983529 0.976645 0.954230 1.000000 0.000000 0.501961
vn 0.701681 0.094289 0.706225
v 1.521502 0.646788 0.313712 0.250980 0.250980 0.501961
vn 0.888491 0.094289 0.449103
v 0.768528 0.646788 1.350092 0.250980 0.250980 0.501961
vn 0.753314 0.364643 0.547315
v 1.313385 -0.442926 0.954230 0.250980 0.250980 0.501961
vn -0.330397 -0.836858 -0.436471
v -1.356574 -0.976645 -0.193885 0.501961 0.501961 1.000000
vn -0.517207 -0.836858 -0.179349
v -0.603600 -0.976645 -1.230265 0.501961 0.501961 1.000000
vn -0.600751 -0.669770 -0.436471
v -0.266859 -1.650125 -0.193885 0.501961 0.501961 1.000000
vn 0.982780 -0.094289 0.158910
v 1.415316 -0.646788 -0.640518 0.501961 1.000000 0.749020
vn 0.931147 -0.364643 0.000000
v 1.623433 0.442926 -0.000000 0.501961 1.000000 0.749020
vn 0.982780 -0.094289 -0.158910
v 1.415316 -0.646788 0.640518 0.501961 1.000000 0.749020
vn 0.525731 0.850651 -0.000000
v 0.867815 1.404154 -0.000000 0.000000 0.000000 0.000000
vn 0.162460 0.850651 0.500000
v 0.268169 1.404154 0.825341 0.000000 0.000000 0.000000
vn -0.425325 0.850651 0.309017
v -0.702077 1.404154 0.510089 0.000000 0.000000 0.000000
vn -0.425325 0.850651 -0.309017
v -0.702077 1.404154 -0.510089 0.066667 0.031373 0.047059
vn 0.162460 0.850651 -0.500000
v 0.268169 1.404154 -0.825341 0.000000 0.000000 0.000000
vn 0.688191 0.525731 0.500000
v 1.135984 0.867815 0.825341 0.000000 0.000000 0.000000
vn 0.688191 0.525731 -0.500000
v 1.135984 0.867815 -0.825341 0.000000 0.000000 0.000000
vn 0.951057 -0.000000 -0.309017
v 1.569892 0.000000 -0.510089 0.000000 0.000000 0.000000
vn 0.951057 -0.000000 0.309017
v 1.569892 0.000000 0.510089 0.000000 0.000000 0.000000
vn -0.262866 0.525731 0.809017
v -0.433907 0.867815 1.335430 0.000000 0.000000 0.000000
vn 0.587785 -0.000000 0.809017
v 0.970246 0.000000 1.335430 0.000000 0.000000 0.000000
vn -0.000000 0.000000 1.000000
v 0.000000 0.000000 1.650682 0.000000 0.000000 0.000000
vn -0.850651 0.525731 0.000000
v -1.404154 0.867815 0.000000 0.050980 0.050980 0.050980
vn -0.951057 0.000000 0.309017
v -1.569892 0.000000 0.510089 0.000000 0.000000 0.000000
vn -0.587785 0.000000 0.809017
v -0.970246 -0.000000 1.335430 0.011765 0.011765 0.011765
vn -0.262866 0.525731 -0.809017
v -0.433907 0.867815 -1.335430 0.000000 0.000000 0.000000
vn -0.951057 0.000000 -0.309017
v -1.569892 -0.000000 -0.510089 0.000000 0.000000 0.000000
vn -0.587785 -0.000000 -0.809017
v -0.970246 -0.000000 -1.335430 0.000000 0.000000 0.000000
vn -0.000000 0.000000 -1.000000
v 0.000000 0.000000 -1.650682 0.000000 0.000000 0.000000
vn 0.587785 0.000000 -0.809017
v 0.970246 0.000000 -1.335430 0.000000 0.000000 0.000000
vn -0.688191 -0.525731 -0.500000
v -1.135984 -0.867815 -0.825341 0.000000 0.000000 0.000000
vn -0.688191 -0.525731 0.500000
v -1.135984 -0.867815 0.825341 0.000000 0.000000 0.000000
vn -0.525731 -0.850651 -0.000000
v -0.867815 -1.404154 -0.000000 0.000000 0.000000 0.000000
vn 0.262866 -0.525731 -0.809017
v 0.433907 -0.867815 -1.335430 0.000000 0.000000 0.000000
vn -0.162460 -0.850651 -0.500000
v -0.268169 -1.404154 -0.825341 0.000000 0.000000 0.000000
vn 0.850651 -0.525731 -0.000000
v 1.404154 -0.867815 0.000000 0.000000 0.000000 0.000000
vn 0.425325 -0.850651 -0.309017
v 0.702077 -1.404154 -0.510089 0.000000 0.000000 0.000000
vn 0.262866 -0.525731 0.809017
v 0.433907 -0.867815 1.335430 0.000000 0.000000 0.000000
vn 0.425325 -0.850651 0.309017
v 0.702077 -1.404154 0.510089 0.000000 0.000000 0.000000
vn -0.162460 -0.850651 0.500000
v -0.268169 -1.404154 0.825341 0.000000 0.000000 0.000000

f 13//13 4//4 86//86
f 13//13 14//14 15//15
f 14//14 7//7 94//94
f 14//14 13//13 86//86
f 15//15 11//11 87//87
f 16//16 5//5 76//76
f 16//16 17//17 18//18
f 17//17 1//1 77//77
f 17//17 16//16 76//76
f 18//18 6//6 88//88
f 18//18 17//17 77//77
f 19//19 8//8 91//91
f 19//19 20//20 21//21
f 19//19 21//21 96//96
f 20//20 6//6 92//92
f 20//20 19//19 91//91
f 21//21 9//9 96//96
f 22//22 3//3 82//82
f 22//22 23//23 24//24
f 22//22 24//24 84//84
f 23//23 4//4 87//87
f 24//24 11//11 84//84
f 25//25 5//5 88//88
f 25//25 26//26 27//27
f 26//26 6//6 91//91
f 27//27 8//8 90//90
f 27//27 26//26 91//91
f 28//28 10//10 100//100
f 28//28 29//29 30//30
f 28//28 30//30 101//101
f 29//29 11//11 102//102
f 30//30 12//12 101//101
f 30//30 29//29 102//102
f 31//31 1//1 73//73
f 31//31 32//32 33//33
f 32//32 2//2 79//79
f 32//32 31//31 73//73
f 33//33 6//6 77//77
f 34//34 10//10 83//83
f 34//34 35//35 36//36
f 35//35 3//3 84//84
f 36//36 11//11 100//100
f 36//36 35//35 84//84
f 37//37 6//6 79//79
f 37//37 38//38 39//39
f 37//37 39//39 92//92
f 38//38 2//2 80//80
f 38//38 37//37 79//79
f 39//39 9//9 92//92
f 40//40 2//2 73//73
f 40//40 41//41 42//42
f 41//41 1//1 74//74
f 42//42 3//3 78//78
f 42//42 41//41 74//74
f 43//43 11//11 94//94
f 43//43 44//44 45//45
f 43//43 45//45 102//102
f 44//44 7//7 95//95
f 45//45 12//12 102//102
f 45//45 44//44 95//95
f 46//46 7//7 89//89
f 46//46 47//47 48//48
f 46//46 48//48 93//93
f 47//47 5//5 90//90
f 48//48 8//8 93//93
f 48//48 47//47 90//90
f 49//49 4//4 75//75
f 49//49 50//50 51//51
f 49//49 51//51 85//85
f 50//50 1//1 76//76
f 50//50 49//49 75//75
f 51//51 5//5 85//85
f 51//51 50//50 76//76
f 52//52 8//8 96//96
f 52//52 53//53 54//54
f 53//53 9//9 99//99
f 54//54 12//12 97//97
f 54//54 53//53 99//99
f 55//55 9//9 98//98
f 55//55 56//56 57//57
f 55//55 57//57 99//99
f 56//56 10//10 101//101
f 57//57 12//12 99//99
f 57//57 56//56 101//101
f 58//58 4//4 85//85
f 58//58 59//59 60//60
f 59//59 5//5 89//89
f 60//60 7//7 86//86
f 61//61 3//3 74//74
f 61//61 62//62 63//63
f 62//62 1//1 75//75
f 63//63 4//4 82//82
f 63//63 62//62 75//75
f 64//64 2//2 78//78
f 64//64 65//65 66//66
f 65//65 3//3 83//83
f 65//65 64//64 78//78
f 66//66 10//10 81//81
f 67//67 7//7 93//93
f 67//67 68//68 69//69
f 67//67 69//69 95//95
f 68//68 8//8 97//97
f 69//69 12//12 95//95
f 69//69 68//68 97//97
f 70//70 9//9 80//80
f 70//70 71//71 72//72
f 71//71 2//2 81//81
f 72//72 10//10 98//98
f 73//73 1//1 41//41
f 73//73 2//2 32//32
f 73//73 41//41 40//40
f 74//74 1//1 62//62
f 74//74 3//3 42//42
f 74//74 62//62 61//61
f 75//75 1//1 50//50
f 75//75 4//4 63//63
f 76//76 1//1 17//17
f 76//76 5//5 51//51
f 77//77 1//1 31//31
f 77//77 6//6 18//18
f 77//77 31//31 33//33
f 78//78 2//2 40//40
f 78//78 3//3 65//65
f 78//78 40//40 42//42
f 79//79 2//2 38//38
f 79//79 6//6 33//33
f 79//79 33//33 32//32
f 80//80 2//2 71//71
f 80//80 9//9 39//39
f 80//80 39//39 38//38
f 80//80 71//71 70//70
f 81//81 2//2 64//64
f 81//81 10//10 72//72
f 81//81 64//64 66//66
f 81//81 72//72 71//71
f 82//82 3//3 61//61
f 82//82 4//4 23//23
f 82//82 23//23 22//22
f 82//82 61//61 63//63
f 83//83 3//3 35//35
f 83//83 10//10 66//66
f 83//83 35//35 34//34
f 83//83 66//66 65//65
f 84//84 3//3 22//22
f 84//84 11//11 36//36
f 85//85 4//4 49//49
f 85//85 5//5 59//59
f 85//85 59//59 58//58
f 86//86 4//4 58//58
f 86//86 7//7 14//14
f 86//86 58//58 60//60
f 87//87 4//4 13//13
f 87//87 11//11 24//24
f 87//87 13//13 15//15
f 87//87 24//24 23//23
f 88//88 5//5 16//16
f 88//88 6//6 26//26
f 88//88 16//16 18//18
f 88//88 26//26 25//25
f 89//89 5//5 47//47
f 89//89 7//7 60//60
f 89//89 47//47 46//46
f 89//89 60//60 59//59
f 90//90 5//5 25//25
f 90//90 8//8 48//48
f 90//90 25//25 27//27
f 91//91 6//6 20//20
f 91//91 8//8 27//27
f 92//92 6//6 37//37
f 92//92 9//9 21//21
f 92//92 21//21 20//20
f 93//93 7//7 46//46
f 93//93 8//8 68//68
f 93//93 68//68 67//67
f 94//94 7//7 44//44
f 94//94 11//11 15//15
f 94//94 15//15 14//14
f 94//94 44//44 43//43
f 95//95 7//7 67//67
f 95//95 12//12 45//45
f 96//96 8//8 19//19
f 96//96 9//9 53//53
f 96//96 53//53 52//52
f 97//97 8//8 52//52
f 97//97 12//12 69//69
f 97//97 52//52 54//54
f 98//98 9//9 70//70
f 98//98 10//10 56//56
f 98//98 56//56 55//55
f 98//98 70//70 72//72
f 99//99 9//9 55//55
f 99//99 12//12 54//54
f 100//100 10//10 34//34
f 100//100 11//11 29//29
f 100//100 29//29 28//28
f 100//100 34//34 36//36
f 101//101 10//10 28//28
f 101//101 12//12 57//57
f 102//102 11//11 43//43
f 102//102 12//12 30//30
