mtllib granite.mtl

vn -0.525731 -0.850651 -0.000000
v 0.545596 0.882794 0.000000 1.000000 1.000000 1.000000
vn -0.162460 -0.850651 0.500000
v 0.168599 0.882794 -0.518893 1.000000 1.000000 1.000000
vn 0.425325 -0.850651 0.309017
v -0.441397 0.882793 -0.320693 1.000000 1.000000 1.000000
vn 0.425326 -0.850651 -0.309017
v -0.441397 0.882793 0.320693 1.000000 1.000000 1.000000
vn -0.162459 -0.850651 -0.500000
v 0.168599 0.882794 0.518893 1.000000 1.000000 1.000000
vn -0.688191 -0.525731 0.500000
v 0.714195 0.545597 -0.518893 1.000000 1.000000 1.000000
vn -0.951057 -0.000001 0.309017
v 0.986993 0.000000 -0.320694 1.000000 1.000000 1.000000
vn -0.951057 -0.000001 -0.309017
v 0.986993 0.000000 0.320694 1.000000 1.000000 1.000000
vn -0.688191 -0.525731 -0.500000
v 0.714195 0.545597 0.518893 1.000000 1.000000 1.000000
vn -0.587785 -0.000001 -0.809017
v 0.609996 0.000000 0.839586 1.000000 1.000000 1.000000
vn 0.000000 0.000000 -1.000000
v 0.000000 0.000000 1.037786 1.000000 1.000000 1.000000
vn 0.262865 -0.525731 -0.809017
v -0.272798 0.545596 0.839586 1.000000 1.000000 1.000000
vn 0.587785 0.000001 -0.809017
v -0.609996 0.000000 0.839586 1.000000 1.000000 1.000000
vn 0.951057 0.000001 -0.309017
v -0.986993 0.000000 0.320694 1.000000 1.000000 1.000000
vn 0.850651 -0.525730 -0.000000
v -0.882794 0.545596 0.000000 1.000000 1.000000 1.000000
vn 0.951057 0.000001 0.309017
v -0.986993 0.000000 -0.320694 1.000000 1.000000 0.000000
vn 0.587785 0.000001 0.809017
v -0.609996 0.000000 -0.839586 1.000000 1.000000 1.000000
vn 0.262866 -0.525731 0.809017
v -0.272798 0.545596 -0.839586 1.000000 1.000000 1.000000
vn 0.000000 0.000000 1.000000
v 0.000000 0.000000 -1.037786 1.000000 1.000000 1.000000
vn -0.587785 -0.000001 0.809017
v 0.609996 0.000000 -0.839586 1.000000 1.000000 1.000000
vn 0.688191 0.525731 -0.500000
v -0.714195 -0.545597 0.518893 1.000000 1.000000 1.000000
vn 0.525731 0.850651 -0.000000
v -0.545596 -0.882794 0.000000 1.000000 1.000000 1.000000
vn 0.688191 0.525731 0.500000
v -0.714195 -0.545597 -0.518893 1.000000 1.000000 1.000000
vn 0.162460 0.850651 0.500000
v -0.168599 -0.882794 -0.518893 1.000000 1.000000 1.000000
vn -0.262866 0.525731 0.809017
v 0.272798 -0.545596 -0.839586 1.000000 1.000000 1.000000
vn -0.425325 0.850651 0.309017
v 0.441397 -0.882793 -0.320693 1.000000 1.000000 1.000000
vn -0.850651 0.525730 -0.000000
v 0.882794 -0.545596 0.000000 1.000000 1.000000 1.000000
vn -0.425326 0.850651 -0.309017
v 0.441397 -0.882793 0.320693 1.000000 1.000000 1.000000
vn -0.262865 0.525731 -0.809017
v 0.272798 -0.545596 0.839586 0.972549 1.000000 0.956863
vn 0.162459 0.850651 -0.500000
v -0.168599 -0.882794 0.518893 1.000000 1.000000 1.000000
vn -0.068235 0.451619 -0.889598
v 0.153143 1.166286 0.471326 0.000000 0.666667 1.000000
vn 0.824972 0.451618 -0.339796
v -0.400934 1.166286 0.291295 0.000000 0.666667 1.000000
vn 0.578096 0.451618 0.679592
v -0.400934 1.166286 -0.291295 0.000000 0.666667 1.000000
vn -0.467689 0.451619 0.759807
v 0.153143 1.166286 -0.471326 0.000000 0.666667 1.000000
vn -0.867144 0.451618 -0.210005
v 0.495581 1.166286 0.000000 0.000000 0.666667 1.000000
vn 0.434455 0.140939 0.889598
v 0.974670 0.658554 -0.471326 1.000000 1.000000 0.000000
vn 0.035000 0.939848 0.339796
v 1.222461 0.162973 -0.291295 1.000000 1.000000 0.000000
vn 0.145407 0.719035 -0.679592
v 1.222461 0.162973 0.291295 1.000000 1.000000 0.000000
vn 0.613096 -0.216344 -0.759808
v 0.974670 0.658554 0.471326 1.000000 1.000000 0.000000
vn 0.791738 -0.573628 0.210006
v 0.821527 0.964841 0.000000 1.000000 1.000000 0.000000
vn -0.711805 0.140938 0.688092
v 0.749447 0.658554 0.781319 1.000000 0.000000 0.000000
vn -0.312350 0.939847 0.138291
v 0.654800 0.162973 1.072614 1.000000 0.000000 0.000000
vn 0.691264 0.719034 -0.071715
v 0.100723 0.162973 1.252645 1.000000 0.000000 0.000000
vn 0.912077 -0.216344 0.348296
v -0.147068 0.658554 1.072614 1.000000 0.000000 0.000000
vn 0.044933 -0.573627 0.817883
v 0.253866 0.964841 0.781319 1.000000 0.000000 0.000000
vn -0.874375 0.140940 -0.464332
v -0.511486 0.658554 0.954208 0.333333 1.000000 0.000000
vn -0.228044 0.939848 -0.254327
v -0.817773 0.162973 0.954208 0.333333 1.000000 0.000000
vn 0.281818 0.719035 0.635270
v -1.160211 0.162973 0.482882 0.333333 1.000000 0.000000
vn -0.049402 -0.216344 0.975067
v -1.065563 0.658554 0.191586 0.333333 1.000000 0.000000
vn -0.763969 -0.573626 0.295475
v -0.664630 0.964841 0.482882 0.333333 1.000000 0.000000
vn 0.171411 0.140939 -0.975066
v -1.065563 0.658554 -0.191586 1.000000 1.000000 0.000000
vn 0.171410 0.939848 -0.295474
v -1.160211 0.162973 -0.482882 1.000000 1.000000 0.000000
vn -0.517092 0.719035 0.464332
v -0.817773 0.162973 -0.954208 1.000000 1.000000 0.000000
vn -0.942610 -0.216343 0.254327
v -0.511486 0.658554 -0.954208 1.000000 1.000000 0.000000
vn -0.517092 -0.573626 -0.635271
v -0.664630 0.964841 -0.482882 1.000000 1.000000 0.000000
vn 0.980312 0.140939 -0.138291
v -0.147068 0.658554 -1.072614 1.000000 0.000000 0.000000
vn 0.333981 0.939848 0.071714
v 0.100723 0.162973 -1.252645 1.000000 0.000000 0.000000
vn -0.601398 0.719034 -0.348296
v 0.654800 0.162973 -1.072614 1.000000 0.000000 0.000000
vn -0.533163 -0.216344 -0.817883
v 0.749447 0.658554 -0.781319 1.000000 0.000000 0.000000
vn 0.444388 -0.573627 -0.688093
v 0.253866 0.964841 -0.781319 1.000000 0.000000 0.000000
vn -0.613096 0.216344 -0.759808
v -0.974670 -0.658554 0.471326 1.000000 0.000000 0.000000
vn -0.791738 0.573628 0.210006
v -0.821527 -0.964841 0.000000 1.000000 0.000000 0.000000
vn -0.434455 -0.140939 0.889598
v -0.974670 -0.658554 -0.471326 1.000000 0.000000 0.000000
vn -0.035000 -0.939848 0.339796
v -1.222461 -0.162973 -0.291295 1.000000 0.000000 0.000000
vn -0.145407 -0.719035 -0.679592
v -1.222461 -0.162973 0.291295 1.000000 0.000000 0.000000
vn 0.533163 0.216344 -0.817883
v -0.749447 -0.658554 -0.781319 0.333333 1.000000 0.000000
vn -0.444388 0.573627 -0.688093
v -0.253866 -0.964841 -0.781319 0.333333 1.000000 0.000000
vn -0.980312 -0.140939 -0.138291
v 0.147068 -0.658554 -1.072614 0.333333 1.000000 0.000000
vn -0.333981 -0.939848 0.071714
v -0.100723 -0.162973 -1.252645 0.333333 1.000000 0.000000
vn 0.601398 -0.719034 -0.348296
v -0.654800 -0.162973 -1.072614 0.333333 1.000000 0.000000
vn 0.517092 -0.719035 0.464332
v 0.817773 -0.162973 -0.954208 0.000000 0.666667 1.000000
vn 0.942610 0.216343 0.254327
v 0.511486 -0.658554 -0.954208 0.000000 0.666667 1.000000
vn 0.517092 0.573626 -0.635271
v 0.664630 -0.964841 -0.482882 0.000000 0.666667 1.000000
vn -0.171411 -0.140939 -0.975066
v 1.065563 -0.658554 -0.191586 0.000000 0.666667 1.000000
vn -0.171410 -0.939848 -0.295474
v 1.160211 -0.162973 -0.482882 0.000000 0.666667 1.000000
vn 0.049402 0.216344 0.975067
v 1.065563 -0.658554 0.191586 0.333333 1.000000 0.000000
vn 0.763969 0.573626 0.295475
v 0.664630 -0.964841 0.482882 0.333333 1.000000 0.000000
vn 0.874375 -0.140940 -0.464332
v 0.511486 -0.658554 0.954208 0.333333 1.000000 0.000000
vn 0.228044 -0.939848 -0.254327
v 0.817773 -0.162973 0.954208 0.333333 1.000000 0.000000
vn -0.281818 -0.719035 0.635270
v 1.160211 -0.162973 0.482882 0.333333 1.000000 0.000000
vn -0.912077 0.216344 0.348296
v 0.147068 -0.658554 1.072614 0.000000 0.666667 1.000000
vn -0.044933 0.573627 0.817883
v -0.253866 -0.964841 0.781319 0.000000 0.666667 1.000000
vn 0.711805 -0.140938 0.688092
v -0.749447 -0.658554 0.781319 0.000000 0.666667 1.000000
vn 0.312350 -0.939847 0.138291
v -0.654800 -0.162973 1.072614 0.000000 0.666667 1.000000
vn -0.691264 -0.719034 -0.071715
v -0.100723 -0.162973 1.252645 0.000000 0.666667 1.000000
vn 0.068235 -0.451619 -0.889598
v -0.153143 -1.166286 0.471326 1.000000 1.000000 0.000000
vn -0.824972 -0.451618 -0.339796
v 0.400934 -1.166286 0.291295 1.000000 1.000000 0.000000
vn -0.578096 -0.451618 0.679592
v 0.400934 -1.166286 -0.291295 1.000000 1.000000 0.000000
vn 0.467689 -0.451619 0.759807
v -0.153143 -1.166286 -0.471326 1.000000 1.000000 0.000000
vn 0.867144 -0.451618 -0.210005
v -0.495581 -1.166286 0.000000 1.000000 1.000000 0.000000
vn 0.525731 0.850651 -0.000000
v 0.850651 1.376382 0.000000 1.000000 1.000000 1.000000
vn 0.162460 0.850651 -0.500000
v 0.262866 1.376382 -0.809017 1.000000 1.000000 1.000000
vn -0.425325 0.850651 -0.309017
v -0.688191 1.376382 -0.500000 1.000000 1.000000 1.000000
vn -0.425325 0.850651 0.309017
v -0.688191 1.376382 0.500000 1.000000 1.000000 1.000000
vn 0.162460 0.850651 0.500000
v 0.262866 1.376382 0.809017 1.000000 1.000000 1.000000
vn 0.688191 0.525731 -0.500000
v 1.113516 0.850651 -0.809017 1.000000 1.000000 1.000000
vn 0.951057 0.000000 -0.309017
v 1.538842 0.000000 -0.500000 1.000000 1.000000 1.000000
vn 0.951057 0.000000 0.309017
v 1.538842 0.000000 0.500000 1.000000 1.000000 1.000000
vn 0.688191 0.525731 0.500000
v 1.113516 0.850651 0.809017 1.000000 1.000000 1.000000
vn 0.587785 -0.000000 0.809017
v 0.951057 0.000000 1.309017 1.000000 1.000000 1.000000
vn 0.000000 0.000000 1.000000
v 0.000000 0.000000 1.618034 1.000000 1.000000 1.000000
vn -0.262865 0.525731 0.809017
v -0.425325 0.850651 1.309017 1.000000 1.000000 1.000000
vn -0.587785 0.000000 0.809017
v -0.951057 0.000000 1.309017 1.000000 1.000000 1.000000
vn -0.951057 -0.000000 0.309017
v -1.538842 0.000000 0.500000 1.000000 1.000000 1.000000
vn -0.850651 0.525731 0.000000
v -1.376382 0.850651 0.000000 1.000000 1.000000 1.000000
vn -0.951057 -0.000000 -0.309017
v -1.538842 0.000000 -0.500000 1.000000 1.000000 1.000000
vn -0.587785 0.000000 -0.809017
v -0.951057 0.000000 -1.309017 1.000000 1.000000 1.000000
vn -0.262865 0.525731 -0.809017
v -0.425325 0.850651 -1.309017 1.000000 1.000000 1.000000
vn -0.000000 0.000000 -1.000000
v 0.000000 0.000000 -1.618034 1.000000 1.000000 1.000000
vn 0.587785 -0.000000 -0.809017
v 0.951057 0.000000 -1.309017 1.000000 1.000000 1.000000
vn -0.688191 -0.525731 0.500000
v -1.113516 -0.850651 0.809017 1.000000 1.000000 1.000000
vn -0.525731 -0.850651 -0.000000
v -0.850651 -1.376382 0.000000 1.000000 1.000000 1.000000
vn -0.688191 -0.525731 -0.500000
v -1.113516 -0.850651 -0.809017 1.000000 1.000000 1.000000
vn -0.162460 -0.850651 -0.500000
v -0.262866 -1.376382 -0.809017 1.000000 1.000000 1.000000
vn 0.262865 -0.525731 -0.809017
v 0.425325 -0.850651 -1.309017 1.000000 1.000000 1.000000
vn 0.425325 -0.850651 -0.309017
v 0.688191 -1.376382 -0.500000 1.000000 1.000000 1.000000
vn 0.850651 -0.525731 0.000000
v 1.376382 -0.850651 0.000000 1.000000 1.000000 1.000000
vn 0.425325 -0.850651 0.309017
v 0.688191 -1.376382 0.500000 1.000000 1.000000 1.000000
vn 0.262865 -0.525731 0.809017
v 0.425325 -0.850651 1.309017 1.000000 1.000000 1.000000
vn -0.162460 -0.850651 0.500000
v -0.262866 -1.376382 0.809017 1.000000 1.000000 1.000000
# 120 vertices, 0 vertices normals


usemtl granite_mat
vt 0.191064 0.742865
vt 0.163457 0.677020
vt 0.230230 0.677943
f 1/1/1 9/2/9 5/3/5
vt 0.245090 0.785426
vt 0.229250 0.805500
f 1/1/1 34/4/34 2/5/2
vt 0.138105 0.696736
f 1/1/1 39/6/39 9/2/9
vt 0.158168 0.811243
f 2/5/2 6/7/6 1/1/1
vt 0.291911 0.770760
vt 0.323415 0.789478
f 2/5/2 33/8/33 3/9/3
vt 0.186018 0.828763
f 2/5/2 59/10/59 6/7/6
vt 0.285770 0.891396
f 3/9/3 18/11/18 2/5/2
vt 0.291928 0.714277
vt 0.319272 0.693087
f 3/9/3 32/12/32 4/13/4
vt 0.338583 0.868106
f 3/9/3 54/14/54 18/11/18
vt 0.401035 0.742265
f 4/13/4 15/15/15 3/9/3
vt 0.245117 0.699594
f 4/13/4 31/16/31 5/3/5
vt 0.399611 0.715159
f 4/13/4 49/17/49 15/15/15
vt 0.296800 0.601010
f 5/3/5 12/18/12 4/13/4
vt 0.224700 0.742506
f 5/3/5 35/19/35 1/1/1
vt 0.241083 0.590051
f 5/3/5 44/20/44 12/18/12
vt 0.118368 0.922479
vt 0.033891 0.804448
f 6/7/6 20/21/20 7/22/7
vt 0.158882 0.742494
f 6/7/6 40/23/40 1/1/1
vt 0.180202 0.912008
f 6/7/6 58/24/58 20/21/20
vt 0.923129 0.540142
vt 0.784817 0.589140
vt 0.734584 0.479055
f 7/25/7 27/26/27 8/27/8
vt 0.138076 0.788244
f 7/22/7 36/28/36 6/7/6
vt 0.826394 0.605559
f 7/25/7 74/29/74 27/26/27
vt 0.033930 0.680493
vt 0.118480 0.562494
f 8/30/8 10/31/10 9/2/9
vt 0.069495 0.781935
f 8/30/8 37/32/37 7/22/7
vt 0.669043 0.560152
vt 0.607575 0.549244
f 8/27/8 79/33/79 10/34/10
vt 0.069520 0.703019
f 9/2/9 38/35/38 8/30/8
vt 0.212913 0.659343
f 9/2/9 45/36/45 5/3/5
vt 0.651516 0.666538
vt 0.522889 0.669660
f 10/34/10 29/37/29 11/38/11
vt 0.186072 0.656235
f 10/31/10 41/39/41 9/2/9
vt 0.674384 0.645292
f 10/34/10 78/40/78 29/37/29
vt 0.258259 0.492558
vt 0.401388 0.541337
f 11/41/11 13/42/13 12/18/12
vt 0.180308 0.572988
f 11/41/11 42/43/42 10/31/10
vt 0.557796 0.773490
vt 0.522264 0.796408
f 11/38/11 84/44/84 13/45/13
vt 0.242667 0.530138
f 12/18/12 43/46/43 11/41/11
vt 0.354203 0.684041
f 12/18/12 50/47/50 4/13/4
vt 0.645827 0.803699
vt 0.605757 0.917342
f 13/45/13 21/48/21 14/49/14
vt 0.338662 0.616949
f 13/42/13 46/50/46 12/18/12
vt 0.626003 0.780138
f 13/45/13 83/51/83 21/48/21
vt 0.499487 0.680579
vt 0.499448 0.804534
f 14/52/14 16/53/16 15/15/15
vt 0.379003 0.576955
f 14/52/14 47/54/47 13/42/13
vt 0.730463 0.948486
vt 0.745774 0.986964
f 14/49/14 64/55/64 16/56/16
vt 0.448958 0.672354
f 15/15/15 48/57/48 14/52/14
vt 0.354166 0.801019
f 15/15/15 55/58/55 3/9/3
vt 0.788804 0.881906
vt 0.921212 0.928387
f 16/56/16 23/59/23 17/60/17
vt 0.399594 0.769917
f 16/53/16 51/61/51 15/15/15
vt 0.727892 0.889563
f 16/56/16 63/62/63 23/59/23
vt 0.435460 0.932389
vt 0.241838 0.982525
f 17/63/17 19/64/19 18/11/18
vt 0.448914 0.812741
f 17/63/17 52/65/52 16/53/16
vt 0.935165 0.806081
vt 0.985485 0.797835
f 17/60/17 69/66/69 19/67/19
vt 0.413098 0.896762
f 18/11/18 53/68/53 17/63/17
vt 0.212861 0.825665
f 18/11/18 60/69/60 2/5/2
vt 0.887889 0.733898
vt 0.986111 0.671086
f 19/67/19 25/70/25 20/71/20
vt 0.240987 0.894967
f 19/64/19 56/72/56 18/11/18
vt 0.886295 0.762151
f 19/67/19 68/73/68 25/70/25
vt 0.226270 0.944939
f 20/21/20 57/74/57 19/64/19
vt 0.900688 0.576499
f 20/71/20 75/75/75 7/25/7
vt 0.678932 0.733871
vt 0.716446 0.798127
f 21/48/21 30/76/30 22/77/22
vt 0.667332 0.906813
f 21/48/21 65/78/65 14/49/14
vt 0.646921 0.733417
f 21/48/21 82/79/82 30/76/30
vt 0.810182 0.781493
f 22/77/22 24/80/24 23/59/23
vt 0.673513 0.821708
f 22/77/22 61/81/61 21/48/21
vt 0.779149 0.762703
f 22/77/22 89/82/89 24/80/24
vt 0.700235 0.818618
f 23/59/23 62/83/62 22/77/22
vt 0.899131 0.891893
f 23/59/23 70/84/70 17/60/17
vt 0.806904 0.683434
f 24/80/24 26/85/26 25/70/25
vt 0.825126 0.862376
f 24/80/24 66/86/66 23/59/23
vt 0.779434 0.704946
f 24/80/24 88/87/88 26/85/26
vt 0.840948 0.793822
f 25/70/25 67/88/67 24/80/24
vt 0.935874 0.662530
f 25/70/25 71/89/71 20/71/20
vt 0.718211 0.667623
f 26/85/26 28/90/28 27/26/27
vt 0.886572 0.706158
f 26/85/26 72/91/72 25/70/25
vt 0.732926 0.689798
f 26/85/26 87/92/87 28/90/28
vt 0.841539 0.674208
f 27/26/27 73/93/73 26/85/26
vt 0.718893 0.517438
f 27/26/27 80/94/80 8/27/8
f 28/90/28 30/76/30 29/37/29
vt 0.729432 0.577775
f 28/90/28 76/95/76 27/26/27
vt 0.712409 0.733619
f 28/90/28 86/96/86 30/76/30
vt 0.701075 0.648547
f 29/37/29 77/97/77 28/90/28
vt 0.558194 0.692796
f 29/37/29 85/98/85 11/38/11
vt 0.626465 0.686568
f 30/76/30 81/99/81 29/37/29
vt 0.732493 0.777565
f 30/76/30 90/100/90 22/77/22
f 31/16/31 35/19/35 5/3/5
vt 0.271021 0.215400
vt 0.203417 0.210389
vt 0.279930 0.182425
f 31/101/31 94/102/94 95/103/95
vt 0.298346 0.249471
f 31/101/31 95/103/95 35/104/35
f 32/12/32 31/16/31 4/13/4
vt 0.231435 0.229628
vt 0.209091 0.292692
f 32/105/32 93/106/93 94/102/94
f 32/105/32 94/102/94 31/101/31
f 33/8/33 32/12/32 3/9/3
vt 0.235159 0.272154
vt 0.288011 0.317058
f 33/107/33 92/108/92 93/106/93
f 33/107/33 93/106/93 32/105/32
f 34/4/34 33/8/33 2/5/2
vt 0.275862 0.285023
vt 0.332454 0.248593
f 34/109/34 91/110/91 92/108/92
f 34/109/34 92/108/92 33/107/33
f 35/19/35 34/4/34 1/1/1
f 35/104/35 91/110/91 34/109/34
f 35/104/35 95/103/95 91/110/91
f 36/28/36 40/23/40 6/7/6
vt 0.390167 0.288597
vt 0.379129 0.330263
vt 0.363520 0.246230
f 36/111/36 96/112/96 40/113/40
vt 0.493638 0.315028
f 36/111/36 97/114/97 96/112/96
f 37/32/37 36/28/36 7/22/7
vt 0.452298 0.281126
f 37/115/37 97/114/97 36/111/36
vt 0.477455 0.164906
f 37/115/37 98/116/98 97/114/97
f 38/35/38 37/32/37 8/30/8
vt 0.443579 0.204430
f 38/117/38 98/116/98 37/115/37
vt 0.366802 0.166993
f 38/117/38 99/118/99 98/116/98
f 39/6/39 38/35/38 9/2/9
vt 0.383034 0.203393
f 39/119/39 91/110/91 99/118/99
f 39/119/39 99/118/99 38/117/38
f 40/23/40 39/6/39 1/1/1
f 40/113/40 91/110/91 39/119/39
f 40/113/40 96/112/96 91/110/91
f 41/39/41 45/36/45 9/2/9
vt 0.334389 0.142738
vt 0.288337 0.152484
f 41/120/41 99/118/99 45/121/45
vt 0.392461 0.058928
f 41/120/41 100/122/100 99/118/99
f 42/43/42 41/39/41 10/31/10
vt 0.346524 0.083412
f 42/123/42 100/122/100 41/120/41
vt 0.249434 0.010532
f 42/123/42 101/124/101 100/122/100
f 43/46/43 42/43/42 11/41/11
vt 0.273551 0.058247
f 43/125/43 101/124/101 42/123/42
vt 0.209441 0.118403
f 43/125/43 102/126/102 101/124/101
f 44/20/44 43/46/43 12/18/12
vt 0.252768 0.117274
f 44/127/44 95/103/95 102/126/102
f 44/127/44 102/126/102 43/125/43
f 45/36/45 44/20/44 5/3/5
f 45/121/45 95/103/95 44/127/44
f 45/121/45 99/118/99 95/103/95
f 46/50/46 50/47/50 12/18/12
vt 0.176350 0.144450
vt 0.176339 0.194622
f 46/128/46 102/126/102 50/129/50
vt 0.106690 0.051526
f 46/128/46 103/130/103 102/126/102
f 47/54/47 46/50/46 13/42/13
vt 0.120897 0.106524
f 47/131/47 103/130/103 46/128/46
vt 0.034600 0.192747
f 47/131/47 104/132/104 103/130/103
f 48/57/48 47/54/47 14/52/14
vt 0.086268 0.178334
f 48/133/48 104/132/104 47/131/47
vt 0.128632 0.254736
f 48/133/48 105/134/105 104/132/104
f 49/17/49 48/57/48 15/15/15
vt 0.136916 0.215984
f 49/135/49 94/102/94 105/134/105
f 49/135/49 105/134/105 48/133/48
f 50/47/50 49/17/49 4/13/4
f 50/129/50 94/102/94 49/135/49
f 50/129/50 102/126/102 94/102/94
f 51/61/51 55/58/55 15/15/15
vt 0.141727 0.293251
vt 0.185336 0.312111
f 51/136/51 105/134/105 55/137/55
vt 0.047614 0.328929
f 51/136/51 106/138/106 105/134/105
f 52/65/52 51/61/51 16/53/16
vt 0.098386 0.333783
f 52/139/52 106/138/106 51/136/51
vt 0.139014 0.442895
f 52/139/52 107/140/107 106/138/106
f 53/68/53 52/65/52 17/63/17
vt 0.145301 0.392281
f 53/141/53 107/140/107 52/139/52
vt 0.228241 0.379588
f 53/141/53 108/142/108 107/140/107
f 54/14/54 53/68/53 18/11/18
vt 0.194277 0.358775
f 54/143/54 93/106/93 108/142/108
f 54/143/54 108/142/108 53/141/53
f 55/58/55 54/14/54 3/9/3
f 55/137/55 93/106/93 54/143/54
f 55/137/55 105/134/105 93/106/93
f 56/72/56 60/69/60 18/11/18
vt 0.268655 0.380250
vt 0.298068 0.346406
f 56/144/56 108/142/108 60/145/60
vt 0.269121 0.485170
f 56/144/56 109/146/109 108/142/108
f 57/74/57 56/72/56 19/64/19
vt 0.294409 0.437865
f 57/147/57 109/146/109 56/144/56
vt 0.422626 0.445465
f 57/147/57 110/148/110 109/146/109
f 58/24/58 57/74/57 20/21/20
vt 0.372026 0.419654
f 58/149/58 96/112/96 110/148/110
f 58/149/58 110/148/110 57/147/57
f 59/10/59 58/24/58 6/7/6
vt 0.347046 0.357289
f 59/150/59 92/108/92 96/112/96
f 59/150/59 96/112/96 58/149/58
f 60/69/60 59/10/59 2/5/2
f 60/145/60 92/108/92 59/150/59
f 60/145/60 108/142/108 92/108/92
f 61/81/61 65/78/65 21/48/21
vt 0.854916 0.210433
vt 0.845862 0.168048
vt 0.916753 0.220042
f 61/151/61 111/152/111 65/153/65
vt 0.795849 0.249079
f 61/151/61 112/154/112 111/152/111
f 62/83/62 61/81/61 22/77/22
vt 0.826824 0.251855
f 62/155/62 112/154/112 61/151/61
vt 0.826947 0.331651
f 62/155/62 113/156/113 112/154/112
f 63/62/63 62/83/62 23/59/23
vt 0.844849 0.295339
vt 0.937885 0.337061
f 63/157/63 106/158/106 113/156/113
f 63/157/63 113/156/113 62/155/62
f 64/55/64 63/62/63 16/56/16
vt 0.905394 0.296392
vt 0.959237 0.187586
f 64/159/64 104/160/104 106/158/106
f 64/159/64 106/158/106 63/157/63
f 65/78/65 64/55/64 14/49/14
f 65/153/65 104/160/104 64/159/64
f 65/153/65 111/152/111 104/160/104
f 66/86/66 70/84/70 23/59/23
vt 0.794140 0.354281
vt 0.804222 0.413990
f 66/161/66 113/156/113 70/162/70
vt 0.740434 0.312845
f 66/161/66 114/163/114 113/156/113
f 67/88/67 66/86/66 24/80/24
vt 0.748452 0.342952
f 67/164/67 114/163/114 66/161/66
vt 0.668705 0.373702
f 67/164/67 115/165/115 114/163/114
f 68/73/68 67/88/67 25/70/25
vt 0.711689 0.376914
vt 0.704675 0.483477
f 68/166/68 109/167/109 115/165/115
f 68/166/68 115/165/115 67/164/67
f 69/66/69 68/73/68 19/67/19
vt 0.730424 0.436622
vt 0.849286 0.440044
f 69/168/69 107/169/107 109/167/109
f 69/168/69 109/167/109 68/166/68
f 70/84/70 69/66/69 17/60/17
f 70/162/70 107/169/107 69/168/69
f 70/162/70 113/156/113 107/169/107
f 71/89/71 75/75/75 20/71/20
vt 0.579526 0.383109
vt 0.563430 0.437584
vt 0.547395 0.310147
f 71/170/71 110/171/110 75/172/75
f 71/170/71 115/165/115 110/171/110
f 72/91/72 71/89/71 25/70/25
vt 0.636254 0.347118
f 72/173/72 115/165/115 71/170/71
vt 0.664980 0.281707
f 72/173/72 116/174/116 115/165/115
f 73/93/73 72/91/72 26/85/26
vt 0.637974 0.296975
f 73/175/73 116/174/116 72/173/72
vt 0.592552 0.234416
f 73/175/73 117/176/117 116/174/116
f 74/29/74 73/93/73 27/26/27
vt 0.599311 0.274266
vt 0.496255 0.293960
f 74/177/74 97/178/97 117/176/117
f 74/177/74 117/176/117 73/175/73
f 75/75/75 74/29/74 7/25/7
f 75/172/75 97/178/97 74/177/74
f 75/172/75 110/171/110 97/178/97
f 76/95/76 80/94/80 27/26/27
vt 0.606785 0.197211
vt 0.564868 0.155208
f 76/179/76 117/176/117 80/180/80
vt 0.674463 0.199659
f 76/179/76 118/181/118 117/176/117
f 77/97/77 76/95/76 28/90/28
vt 0.651018 0.179866
f 77/182/77 118/181/118 76/179/76
vt 0.697025 0.113604
f 77/182/77 119/183/119 118/181/118
f 78/40/78 77/97/77 29/37/29
vt 0.661564 0.133539
vt 0.609236 0.047562
f 78/184/78 100/185/100 119/183/119
f 78/184/78 119/183/119 77/182/77
f 79/33/79 78/40/78 10/34/10
vt 0.613773 0.098363
vt 0.513959 0.158308
f 79/186/79 98/187/98 100/185/100
f 79/186/79 100/185/100 78/184/78
f 80/94/80 79/33/79 8/27/8
f 80/180/80 98/187/98 79/186/79
f 80/180/80 117/176/117 98/187/98
f 81/99/81 85/98/85 29/37/29
vt 0.736639 0.114643
vt 0.764365 0.057950
f 81/188/81 119/183/119 85/189/85
vt 0.754331 0.178991
f 81/188/81 120/190/120 119/183/119
f 82/79/82 81/99/81 30/76/30
vt 0.764867 0.149481
f 82/191/82 111/152/111 120/190/120
f 82/191/82 120/190/120 81/188/81
f 83/51/83 82/79/82 21/48/21
vt 0.814191 0.140293
vt 0.892768 0.054777
f 83/192/83 103/193/103 111/152/111
f 83/192/83 111/152/111 82/191/82
f 84/44/84 83/51/83 13/45/13
vt 0.841307 0.078827
vt 0.740723 0.009801
f 84/194/84 101/195/101 103/193/103
f 84/194/84 103/193/103 83/192/83
f 85/98/85 84/44/84 11/38/11
f 85/189/85 101/195/101 84/194/84
f 85/189/85 119/183/119 101/195/101
f 86/96/86 90/100/90 30/76/30
vt 0.740556 0.210062
f 86/196/86 118/181/118 120/190/120
vt 0.761800 0.246368
f 86/196/86 120/190/120 90/197/90
f 87/92/87 86/96/86 28/90/28
vt 0.699433 0.221519
f 87/198/87 116/174/116 118/181/118
f 87/198/87 118/181/118 86/196/86
f 88/87/88 87/92/87 26/85/26
vt 0.694245 0.263891
f 88/199/88 114/163/114 116/174/116
f 88/199/88 116/174/116 87/198/87
f 89/82/89 88/87/88 24/80/24
vt 0.733317 0.279476
f 89/200/89 112/154/112 114/163/114
f 89/200/89 114/163/114 88/199/88
f 90/100/90 89/82/89 22/77/22
f 90/197/90 112/154/112 89/200/89
f 90/197/90 120/190/120 112/154/112
f 91/110/91 96/112/96 92/108/92
f 92/108/92 108/142/108 93/106/93
f 93/106/93 105/134/105 94/102/94
f 94/102/94 102/126/102 95/103/95
f 95/103/95 99/118/99 91/110/91
f 97/114/97 110/148/110 96/112/96
f 98/187/98 117/176/117 97/178/97
f 99/118/99 100/122/100 98/116/98
f 101/195/101 119/183/119 100/185/100
f 102/126/102 103/130/103 101/124/101
f 104/160/104 111/152/111 103/193/103
f 105/134/105 106/138/106 104/132/104
f 107/169/107 113/156/113 106/158/106
f 108/142/108 109/146/109 107/140/107
f 110/171/110 115/165/115 109/167/109
f 112/154/112 120/190/120 111/152/111
f 113/156/113 114/163/114 112/154/112
f 115/165/115 116/174/116 114/163/114
f 117/176/117 118/181/118 116/174/116
f 119/183/119 120/190/120 118/181/118
# 280 faces, 200 coords texture

# End of File
