# Exported from Wings 3D 2.2.5
mtllib granite.mtl
o unnamed_object1
#120 vertices, 160 faces
v 0.54559600 0.88279400 0.0000000e+0
v 0.16859900 0.88279400 -0.51889300
v -0.44139700 0.88279300 -0.32069300
v -0.44139700 0.88279300 0.32069300
v 0.16859900 0.88279400 0.51889300
v 0.71419500 0.54559700 -0.51889300
v 0.98699300 0.0000000e+0 -0.32069400
v 0.98699300 0.0000000e+0 0.32069400
v 0.71419500 0.54559700 0.51889300
v 0.60999600 0.0000000e+0 0.83958600
v 0.0000000e+0 0.0000000e+0 1.03778600
v -0.27279800 0.54559600 0.83958600
v -0.60999600 0.0000000e+0 0.83958600
v -0.98699300 0.0000000e+0 0.32069400
v -0.88279400 0.54559600 0.0000000e+0
v -0.98699300 0.0000000e+0 -0.32069400
v -0.60999600 0.0000000e+0 -0.83958600
v -0.27279800 0.54559600 -0.83958600
v 0.0000000e+0 0.0000000e+0 -1.03778600
v 0.60999600 0.0000000e+0 -0.83958600
v -0.71419500 -0.54559700 0.51889300
v -0.54559600 -0.88279400 0.0000000e+0
v -0.71419500 -0.54559700 -0.51889300
v -0.16859900 -0.88279400 -0.51889300
v 0.27279800 -0.54559600 -0.83958600
v 0.44139700 -0.88279300 -0.32069300
v 0.88279400 -0.54559600 0.0000000e+0
v 0.44139700 -0.88279300 0.32069300
v 0.27279800 -0.54559600 0.83958600
v -0.16859900 -0.88279400 0.51889300
v 0.15314300 1.16628600 0.47132600
v -0.40093400 1.16628600 0.29129500
v -0.40093400 1.16628600 -0.29129500
v 0.15314300 1.16628600 -0.47132600
v 0.49558100 1.16628600 0.0000000e+0
v 0.97467000 0.65855400 -0.47132600
v 1.22246100 0.16297300 -0.29129500
v 1.22246100 0.16297300 0.29129500
v 0.97467000 0.65855400 0.47132600
v 0.82152700 0.96484100 0.0000000e+0
v 0.74944700 0.65855400 0.78131900
v 0.65480000 0.16297300 1.07261400
v 0.10072300 0.16297300 1.25264500
v -0.14706800 0.65855400 1.07261400
v 0.25386600 0.96484100 0.78131900
v -0.51148600 0.65855400 0.95420800
v -0.81777300 0.16297300 0.95420800
v -1.16021100 0.16297300 0.48288200
v -1.06556300 0.65855400 0.19158600
v -0.66463000 0.96484100 0.48288200
v -1.06556300 0.65855400 -0.19158600
v -1.16021100 0.16297300 -0.48288200
v -0.81777300 0.16297300 -0.95420800
v -0.51148600 0.65855400 -0.95420800
v -0.66463000 0.96484100 -0.48288200
v -0.14706800 0.65855400 -1.07261400
v 0.10072300 0.16297300 -1.25264500
v 0.65480000 0.16297300 -1.07261400
v 0.74944700 0.65855400 -0.78131900
v 0.25386600 0.96484100 -0.78131900
v -0.97467000 -0.65855400 0.47132600
v -0.82152700 -0.96484100 0.0000000e+0
v -0.97467000 -0.65855400 -0.47132600
v -1.22246100 -0.16297300 -0.29129500
v -1.22246100 -0.16297300 0.29129500
v -0.74944700 -0.65855400 -0.78131900
v -0.25386600 -0.96484100 -0.78131900
v 0.14706800 -0.65855400 -1.07261400
v -0.10072300 -0.16297300 -1.25264500
v -0.65480000 -0.16297300 -1.07261400
v 0.81777300 -0.16297300 -0.95420800
v 0.51148600 -0.65855400 -0.95420800
v 0.66463000 -0.96484100 -0.48288200
v 1.06556300 -0.65855400 -0.19158600
v 1.16021100 -0.16297300 -0.48288200
v 1.06556300 -0.65855400 0.19158600
v 0.66463000 -0.96484100 0.48288200
v 0.51148600 -0.65855400 0.95420800
v 0.81777300 -0.16297300 0.95420800
v 1.16021100 -0.16297300 0.48288200
v 0.14706800 -0.65855400 1.07261400
v -0.25386600 -0.96484100 0.78131900
v -0.74944700 -0.65855400 0.78131900
v -0.65480000 -0.16297300 1.07261400
v -0.10072300 -0.16297300 1.25264500
v -0.15314300 -1.16628600 0.47132600
v 0.40093400 -1.16628600 0.29129500
v 0.40093400 -1.16628600 -0.29129500
v -0.15314300 -1.16628600 -0.47132600
v -0.49558100 -1.16628600 0.0000000e+0
v 0.85065100 1.37638200 0.0000000e+0
v 0.26286600 1.37638200 -0.80901700
v -0.68819100 1.37638200 -0.50000000
v -0.68819100 1.37638200 0.50000000
v 0.26286600 1.37638200 0.80901700
v 1.11351600 0.85065100 -0.80901700
v 1.53884200 0.0000000e+0 -0.50000000
v 1.53884200 0.0000000e+0 0.50000000
v 1.11351600 0.85065100 0.80901700
v 0.95105700 0.0000000e+0 1.30901700
v 0.0000000e+0 0.0000000e+0 1.61803400
v -0.42532500 0.85065100 1.30901700
v -0.95105700 0.0000000e+0 1.30901700
v -1.53884200 0.0000000e+0 0.50000000
v -1.37638200 0.85065100 0.0000000e+0
v -1.53884200 0.0000000e+0 -0.50000000
v -0.95105700 0.0000000e+0 -1.30901700
v -0.42532500 0.85065100 -1.30901700
v 0.0000000e+0 0.0000000e+0 -1.61803400
v 0.95105700 0.0000000e+0 -1.30901700
v -1.11351600 -0.85065100 0.80901700
v -0.85065100 -1.37638200 0.0000000e+0
v -1.11351600 -0.85065100 -0.80901700
v -0.26286600 -1.37638200 -0.80901700
v 0.42532500 -0.85065100 -1.30901700
v 0.68819100 -1.37638200 -0.50000000
v 1.37638200 -0.85065100 0.0000000e+0
v 0.68819100 -1.37638200 0.50000000
v 0.42532500 -0.85065100 1.30901700
v -0.26286600 -1.37638200 0.80901700
vt 3.3891017e-2 0.80444837
vt 3.3929826e-2 0.68049333
vt 3.4600311e-2 0.19274678
vt 4.7613929e-2 0.32892899
vt 6.9495233e-2 0.78193542
vt 6.9519923e-2 0.70301945
vt 8.6267827e-2 0.17833385
vt 9.8385761e-2 0.33378297
vt 0.10669012 5.1525767e-2
vt 0.11836760 0.92247868
vt 0.11848025 0.56249425
vt 0.12089725 0.10652362
vt 0.13676254 0.25494144
vt 0.13691564 0.21598421
vt 0.13807614 0.78824433
vt 0.13810483 0.69673587
vt 0.13901382 0.44289522
vt 0.14172721 0.29325082
vt 0.14530055 0.39228089
vt 0.15675960 0.81162462
vt 0.15680288 0.67336248
vt 0.15888209 0.74249393
vt 0.17633882 0.19462191
vt 0.17635026 0.14444971
vt 0.18020237 0.91200802
vt 0.18030848 0.57298773
vt 0.18533562 0.31211149
vt 0.18601833 0.82876314
vt 0.18607236 0.65623480
vt 0.19266912 0.74250018
vt 0.19427698 0.35877492
vt 0.20496093 0.21261083
vt 0.21104990 0.29148885
vt 0.21286076 0.82566528
vt 0.21291280 0.65934257
vt 0.21377010 0.12807626
vt 0.22469971 0.74250610
vt 0.22627045 0.94493872
vt 0.23059419 0.37193976
vt 0.23143543 0.22962771
vt 0.23277466 0.80563286
vt 0.23281417 0.67938235
vt 0.23515867 0.27215378
vt 0.24098731 0.89496731
vt 0.24108269 0.59005093
vt 0.24183798 0.98252492
vt 0.24266745 0.53013807
vt 0.24508969 0.78542615
vt 0.24511655 0.69959361
vt 0.24943445 1.0532195e-2
vt 0.25276753 0.11727366
vt 0.25825852 0.49255761
vt 0.26865509 0.38024967
vt 0.26912086 0.48516955
vt 0.27102120 0.21539990
vt 0.27355089 5.8247370e-2
vt 0.27586165 0.28502255
vt 0.27927136 0.18505176
vt 0.28672371 0.31456048
vt 0.28833704 0.15248403
vt 0.29191077 0.77076038
vt 0.29192845 0.71427667
vt 0.29440915 0.43786456
vt 0.29671099 0.88402934
vt 0.29679954 0.60100952
vt 0.29806824 0.34640586
vt 0.29834575 0.24947081
vt 0.32003864 0.78504382
vt 0.32006525 0.70000362
vt 0.32976128 0.24800747
vt 0.33438881 0.14273759
vt 0.33858332 0.86810573
vt 0.33866189 0.61694860
vt 0.34652420 8.3412023e-2
vt 0.34704573 0.35728932
vt 0.35416616 0.80101888
vt 0.35420273 0.68404116
vt 0.36065125 0.17150986
vt 0.36352048 0.24622999
vt 0.37115403 0.32431774
vt 0.37202554 0.41965449
vt 0.37900323 0.57695521
vt 0.38303425 0.20339340
vt 0.39016696 0.28859653
vt 0.39246108 5.8927696e-2
vt 0.39959375 0.76991744
vt 0.39961094 0.71515940
vt 0.40138827 0.54133683
vt 0.40265512 0.74253898
vt 0.41309758 0.89676231
vt 0.42262620 0.44546512
vt 0.43546032 0.93238896
vt 0.44357946 0.20442989
vt 0.44891377 0.81274134
vt 0.44895773 0.67235378
vt 0.45229783 0.28112623
vt 0.47745452 0.16490571
vt 0.49363778 0.31502839
vt 0.49625495 0.29395987
vt 0.49944848 0.80453430
vt 0.49948730 0.68057949
vt 0.51395861 0.15830764
vt 0.52226360 0.79640826
vt 0.52288948 0.66965985
vt 0.54739452 0.31014656
vt 0.55779582 0.77349036
vt 0.55819436 0.69279589
vt 0.56343024 0.43758367
vt 0.56486767 0.15520799
vt 0.57952614 0.38310865
vt 0.59931098 0.27426578
vt 0.60050186 0.23532645
vt 0.60575723 0.91734162
vt 0.60678511 0.19721114
vt 0.60757509 0.54924412
vt 0.60923552 4.7562201e-2
vt 0.61377250 9.8363276e-2
vt 0.62600283 0.78013851
vt 0.62646494 0.68656790
vt 0.63625446 0.34711805
vt 0.63797378 0.29697533
vt 0.64448183 0.80409951
vt 0.64517995 0.66272141
vt 0.64692119 0.73341692
vt 0.65101819 0.17986602
vt 0.66156395 0.13353882
vt 0.66719941 0.27998447
vt 0.66733151 0.90681282
vt 0.66904340 0.56015199
vt 0.67308720 0.36477261
vt 0.67351258 0.82170836
vt 0.67438379 0.64529192
vt 0.67600576 0.20136344
vt 0.68053869 0.73352048
vt 0.69424518 0.26389100
vt 0.69831369 0.12163463
vt 0.69943319 0.22151867
vt 0.70023502 0.81861794
vt 0.70107473 0.64854686
vt 0.70467548 0.48347701
vt 0.71168878 0.37691405
vt 0.71240856 0.73361861
vt 0.71889288 0.51743800
vt 0.72014400 0.79819128
vt 0.72078145 0.66909549
vt 0.72789228 0.88956284
vt 0.72943165 0.57777468
vt 0.73042357 0.43662216
vt 0.73046274 0.94848592
vt 0.73249299 0.77756456
vt 0.73292639 0.68979771
vt 0.73331657 0.27947590
vt 0.73458380 0.47905544
vt 0.73663859 0.11464262
vt 0.74051492 0.31009058
vt 0.74055588 0.21006167
vt 0.74072344 9.8012583e-3
vt 0.74577421 0.98696408
vt 0.74845173 0.34295166
vt 0.75243042 0.18091601
vt 0.76180019 0.24636786
vt 0.76436483 5.7950441e-2
vt 0.76486674 0.14948094
vt 0.77914868 0.76270302
vt 0.77943372 0.70494619
vt 0.78338813 0.87853850
vt 0.78481698 0.58914032
vt 0.79314653 0.24891405
vt 0.79413989 0.35428092
vt 0.80422153 0.41398980
vt 0.80706768 0.77738921
vt 0.80749700 0.69043236
vt 0.81419052 0.14029349
vt 0.82137923 0.32643173
vt 0.82512591 0.86237645
vt 0.82639369 0.60555908
vt 0.82682433 0.25185505
vt 0.83714708 0.17407710
vt 0.84094829 0.79382234
vt 0.84130685 7.8827155e-2
vt 0.84153891 0.67420835
vt 0.84484877 0.29533929
vt 0.84928645 0.44004421
vt 0.85491644 0.21043293
vt 0.88629547 0.76215061
vt 0.88657200 0.70615842
vt 0.88947111 0.73416387
vt 0.89276776 5.4777428e-2
vt 0.89913050 0.89189333
vt 0.90068792 0.57649917
vt 0.90539371 0.29639201
vt 0.91675263 0.22004207
vt 0.92121225 0.92838733
vt 0.92312938 0.54014232
vt 0.93516509 0.80608134
vt 0.93587397 0.66253012
vt 0.93788517 0.33706124
vt 0.95923748 0.18758617
vt 0.98548524 0.79783463
vt 0.98611106 0.67108643
vn -0.52573148 -0.85065058 0.0000000e+0
vn -0.16245950 -0.85065080 0.50000012
vn 0.42532564 -0.85065080 0.30901670
vn 0.42532564 -0.85065080 -0.30901670
vn -0.16245950 -0.85065080 -0.50000012
vn -0.68819111 -0.52573112 0.49999979
vn -0.95105654 -5.6710130e-7 0.30901692
vn -0.95105654 -5.6710130e-7 -0.30901692
vn -0.68819111 -0.52573112 -0.49999979
vn -0.58778526 -7.0134924e-7 -0.80901699
vn 0.0000000e+0 0.0000000e+0 -1.00000000
vn 0.26286558 -0.52573092 -0.80901711
vn 0.58778526 7.0134924e-7 -0.80901699
vn 0.95105654 5.6710130e-7 -0.30901692
vn 0.85065114 -0.52573058 2.7526019e-17
vn 0.95105654 5.6710130e-7 0.30901692
vn 0.58778526 7.0134924e-7 0.80901699
vn 0.26286558 -0.52573092 0.80901711
vn -6.8815069e-18 -2.7526028e-17 1.00000000
vn -0.58778526 -7.0134924e-7 0.80901699
vn 0.68819111 0.52573112 -0.49999979
vn 0.52573148 0.85065058 0.0000000e+0
vn 0.68819111 0.52573112 0.49999979
vn 0.16245950 0.85065080 0.50000012
vn -0.26286558 0.52573092 0.80901711
vn -0.42532564 0.85065080 0.30901670
vn -0.85065114 0.52573058 -2.7526019e-17
vn -0.42532564 0.85065080 -0.30901670
vn -0.26286558 0.52573092 -0.80901711
vn 0.16245950 0.85065080 -0.50000012
vn -0.27407386 0.46191936 -0.84351290
vn 0.71753516 0.46191916 -0.52131946
vn 0.71753516 0.46191916 0.52131946
vn -0.27407386 0.46191936 0.84351290
vn -0.88692220 0.46191884 0.0000000e+0
vn 0.53572213 -3.8562909e-2 0.84351331
vn 9.2261297e-2 0.84835942 0.52131963
vn 9.2261297e-2 0.84835942 -0.52131963
vn 0.53572213 -3.8562909e-2 -0.84351331
vn 0.80979623 -0.58671123 0.0000000e+0
vn -0.63668166 -3.8563163e-2 0.77016190
vn -0.46729445 0.84835904 0.24884299
vn 0.52431501 0.84835930 -7.3350333e-2
vn 0.96777593 -3.8562585e-2 0.24884269
vn 0.25024110 -0.58671079 0.77016222
vn -0.92921390 -3.8561125e-2 -0.36752492
vn -0.38106577 0.84835952 -0.36752552
vn 0.23178266 0.84835948 0.47598633
vn 6.2395655e-2 -3.8562159e-2 0.99730624
vn -0.65513972 -0.58670956 0.47598723
vn 6.2395655e-2 -3.8562159e-2 -0.99730624
vn 0.23178266 0.84835948 -0.47598633
vn -0.38106577 0.84835952 0.36752552
vn -0.92921390 -3.8561125e-2 0.36752492
vn -0.65513972 -0.58670956 -0.47598723
vn 0.96777593 -3.8562585e-2 -0.24884269
vn 0.52431501 0.84835930 7.3350333e-2
vn -0.46729445 0.84835904 -0.24884299
vn -0.63668166 -3.8563163e-2 -0.77016190
vn 0.25024110 -0.58671079 -0.77016222
vn -0.53572213 3.8562909e-2 -0.84351331
vn -0.80979623 0.58671123 0.0000000e+0
vn -0.53572213 3.8562909e-2 0.84351331
vn -9.2261297e-2 -0.84835942 0.52131963
vn -9.2261297e-2 -0.84835942 -0.52131963
vn 0.63668166 3.8563163e-2 -0.77016190
vn -0.25024110 0.58671079 -0.77016222
vn -0.96777593 3.8562585e-2 -0.24884269
vn -0.52431501 -0.84835930 7.3350333e-2
vn 0.46729445 -0.84835904 -0.24884299
vn 0.38106577 -0.84835952 0.36752552
vn 0.92921390 3.8561125e-2 0.36752492
vn 0.65513972 0.58670956 -0.47598723
vn -6.2395655e-2 3.8562159e-2 -0.99730624
vn -0.23178266 -0.84835948 -0.47598633
vn -6.2395655e-2 3.8562159e-2 0.99730624
vn 0.65513972 0.58670956 0.47598723
vn 0.92921390 3.8561125e-2 -0.36752492
vn 0.38106577 -0.84835952 -0.36752552
vn -0.23178266 -0.84835948 0.47598633
vn -0.96777593 3.8562585e-2 0.24884269
vn -0.25024110 0.58671079 0.77016222
vn 0.63668166 3.8563163e-2 0.77016190
vn 0.46729445 -0.84835904 0.24884299
vn -0.52431501 -0.84835930 -7.3350333e-2
vn 0.27407386 -0.46191936 -0.84351290
vn -0.71753516 -0.46191916 -0.52131946
vn -0.71753516 -0.46191916 0.52131946
vn 0.27407386 -0.46191936 0.84351290
vn 0.88692220 -0.46191884 0.0000000e+0
vn 0.52573140 0.85065063 0.0000000e+0
vn 0.16246012 0.85065073 -0.50000005
vn -0.42532523 0.85065083 -0.30901717
vn -0.42532523 0.85065083 0.30901717
vn 0.16246012 0.85065073 0.50000005
vn 0.68819087 0.52573122 -0.50000001
vn 0.95105653 2.4744766e-7 -0.30901695
vn 0.95105653 2.4744766e-7 0.30901695
vn 0.68819087 0.52573122 0.50000001
vn 0.58778520 -1.9399846e-7 0.80901703
vn 0.0000000e+0 3.0750520e-17 1.00000000
vn -0.26286515 0.52573133 0.80901699
vn -0.58778520 1.9399846e-7 0.80901703
vn -0.95105653 -2.4744766e-7 0.30901695
vn -0.85065072 0.52573125 -3.0750504e-17
vn -0.95105653 -2.4744766e-7 -0.30901695
vn -0.58778520 1.9399846e-7 -0.80901703
vn -0.26286515 0.52573133 -0.80901699
vn 0.0000000e+0 3.0750520e-17 -1.00000000
vn 0.58778520 -1.9399846e-7 -0.80901703
vn -0.68819087 -0.52573122 0.50000001
vn -0.52573140 -0.85065063 0.0000000e+0
vn -0.68819087 -0.52573122 -0.50000001
vn -0.16246012 -0.85065073 -0.50000005
vn 0.26286515 -0.52573133 -0.80901699
vn 0.42532523 -0.85065083 -0.30901717
vn 0.85065072 -0.52573125 3.0750504e-17
vn 0.42532523 -0.85065083 0.30901717
vn 0.26286515 -0.52573133 0.80901699
vn -0.16246012 -0.85065073 0.50000005
g unnamed_object1_unnamed_object1_auv
usemtl granite_mat
s 1
f 1/30/1 9/21/9 5/42/5
f 1/30/1 35/37/35 34/48/34 2/41/2
f 1/30/1 40/22/40 39/16/39 9/21/9
f 2/41/2 6/20/6 1/30/1
f 2/41/2 34/48/34 33/61/33 3/68/3
f 2/41/2 60/34/60 59/28/59 6/20/6
f 3/68/3 18/64/18 2/41/2
f 3/68/3 33/61/33 32/62/32 4/69/4
f 3/68/3 55/76/55 54/72/54 18/64/18
f 4/69/4 15/89/15 3/68/3
f 4/69/4 32/62/32 31/49/31 5/42/5
f 4/69/4 50/77/50 49/87/49 15/89/15
f 5/42/5 12/65/12 4/69/4
f 5/42/5 31/49/31 35/37/35 1/30/1
f 5/42/5 45/35/45 44/45/44 12/65/12
f 6/20/6 20/10/20 7/1/7
f 6/20/6 36/15/36 40/22/40 1/30/1
f 6/20/6 59/28/59 58/25/58 20/10/20
f 7/194/7 27/167/27 8/153/8
f 7/1/7 37/5/37 36/15/36 6/20/6
f 7/194/7 75/190/75 74/176/74 27/167/27
f 8/2/8 10/11/10 9/21/9
f 8/2/8 38/6/38 37/5/37 7/1/7
f 8/153/8 80/143/80 79/129/79 10/115/10
f 9/21/9 39/16/39 38/6/38 8/2/8
f 9/21/9 41/29/41 45/35/45 5/42/5
f 10/115/10 29/123/29 11/104/11
f 10/11/10 42/26/42 41/29/41 9/21/9
f 10/115/10 79/129/79 78/132/78 29/123/29
f 11/52/11 13/88/13 12/65/12
f 11/52/11 43/47/43 42/26/42 10/11/10
f 11/104/11 85/107/85 84/106/84 13/103/13
f 12/65/12 44/45/44 43/47/43 11/52/11
f 12/65/12 46/73/46 50/77/50 4/69/4
f 13/103/13 21/122/21 14/113/14
f 13/88/13 47/82/47 46/73/46 12/65/12
f 13/103/13 84/106/84 83/118/83 21/122/21
f 14/101/14 16/100/16 15/89/15
f 14/101/14 48/95/48 47/82/47 13/88/13
f 14/113/14 65/128/65 64/149/64 16/158/16
f 15/89/15 49/87/49 48/95/48 14/101/14
f 15/89/15 51/86/51 55/76/55 3/68/3
f 16/158/16 23/166/23 17/193/17
f 16/100/16 52/94/52 51/86/51 15/89/15
f 16/158/16 64/149/64 63/146/63 23/166/23
f 17/92/17 19/46/19 18/64/18
f 17/92/17 53/90/53 52/94/52 16/100/16
f 17/193/17 70/189/70 69/195/69 19/199/19
f 18/64/18 54/72/54 53/90/53 17/92/17
f 18/64/18 56/44/56 60/34/60 2/41/2
f 19/199/19 25/187/25 20/200/20
f 19/46/19 57/38/57 56/44/56 18/64/18
f 19/199/19 69/195/69 68/185/68 25/187/25
f 20/10/20 58/25/58 57/38/57 19/46/19
f 20/200/20 71/196/71 75/190/75 7/194/7
f 21/122/21 30/134/30 22/144/22
f 21/122/21 61/131/61 65/128/65 14/113/14
f 21/122/21 83/118/83 82/124/82 30/134/30
f 22/144/22 24/171/24 23/166/23
f 22/144/22 62/138/62 61/131/61 21/122/21
f 22/144/22 90/150/90 89/164/89 24/171/24
f 23/166/23 63/146/63 62/138/62 22/144/22
f 23/166/23 66/175/66 70/189/70 17/193/17
f 24/171/24 26/172/26 25/187/25
f 24/171/24 67/179/67 66/175/66 23/166/23
f 24/171/24 89/164/89 88/165/88 26/172/26
f 25/187/25 68/185/68 67/179/67 24/171/24
f 25/187/25 72/186/72 71/196/71 20/200/20
f 26/172/26 28/145/28 27/167/27
f 26/172/26 73/181/73 72/186/72 25/187/25
f 26/172/26 88/165/88 87/151/87 28/145/28
f 27/167/27 74/176/74 73/181/73 26/172/26
f 27/167/27 76/147/76 80/143/80 8/153/8
f 28/145/28 30/134/30 29/123/29
f 28/145/28 77/139/77 76/147/76 27/167/27
f 28/145/28 87/151/87 86/142/86 30/134/30
f 29/123/29 78/132/78 77/139/77 28/145/28
f 29/123/29 81/119/81 85/107/85 11/104/11
f 30/134/30 82/124/82 81/119/81 29/123/29
f 30/134/30 86/142/86 90/150/90 22/144/22
f 31/55/31 95/58/95 91/70/91 35/67/35
f 32/40/32 94/32/94 95/58/95 31/55/31
f 33/43/33 93/33/93 94/32/94 32/40/32
f 34/57/34 92/59/92 93/33/93 33/43/33
f 35/67/35 91/70/91 92/59/92 34/57/34
f 36/84/36 96/80/96 91/70/91 40/79/40
f 37/96/37 97/98/97 96/80/96 36/84/36
f 38/93/38 98/97/98 97/98/97 37/96/37
f 39/83/39 99/78/99 98/97/98 38/93/38
f 40/79/40 91/70/91 99/78/99 39/83/39
f 41/71/41 99/78/99 95/58/95 45/60/45
f 42/74/42 100/85/100 99/78/99 41/71/41
f 43/56/43 101/50/101 100/85/100 42/74/42
f 44/51/44 102/36/102 101/50/101 43/56/43
f 45/60/45 95/58/95 102/36/102 44/51/44
f 46/24/46 102/36/102 94/32/94 50/23/50
f 47/12/47 103/9/103 102/36/102 46/24/46
f 48/7/48 104/3/104 103/9/103 47/12/47
f 49/14/49 105/13/105 104/3/104 48/7/48
f 50/23/50 94/32/94 105/13/105 49/14/49
f 51/18/51 105/13/105 93/33/93 55/27/55
f 52/8/52 106/4/106 105/13/105 51/18/51
f 53/19/53 107/17/107 106/4/106 52/8/52
f 54/31/54 108/39/108 107/17/107 53/19/53
f 55/27/55 93/33/93 108/39/108 54/31/54
f 56/53/56 108/39/108 92/59/92 60/66/60
f 57/63/57 109/54/109 108/39/108 56/53/56
f 58/81/58 110/91/110 109/54/109 57/63/57
f 59/75/59 96/80/96 110/91/110 58/81/58
f 60/66/60 92/59/92 96/80/96 59/75/59
f 61/184/61 111/178/111 104/198/104 65/192/65
f 62/177/62 112/168/112 111/178/111 61/184/61
f 63/182/63 113/174/113 112/168/112 62/177/62
f 64/191/64 106/197/106 113/174/113 63/182/63
f 65/192/65 104/198/104 106/197/106 64/191/64
f 66/169/66 113/174/113 107/183/107 70/170/70
f 67/159/67 114/155/114 113/174/113 66/169/66
f 68/141/68 115/130/115 114/155/114 67/159/67
f 69/148/69 109/140/109 115/130/115 68/141/68
f 70/170/70 107/183/107 109/140/109 69/148/69
f 71/110/71 110/108/110 97/99/97 75/105/75
f 72/120/72 115/130/115 110/108/110 71/110/71
f 73/121/73 116/127/116 115/130/115 72/120/72
f 74/111/74 117/112/117 116/127/116 73/121/73
f 75/105/75 97/99/97 117/112/117 74/111/74
f 76/114/76 117/112/117 98/102/98 80/109/80
f 77/125/77 118/133/118 117/112/117 76/114/76
f 78/126/78 119/136/119 118/133/118 77/125/77
f 79/117/79 100/116/100 119/136/119 78/126/78
f 80/109/80 98/102/98 100/116/100 79/117/79
f 81/154/81 119/136/119 101/157/101 85/162/85
f 82/163/82 120/160/120 119/136/119 81/154/81
f 83/173/83 111/178/111 120/160/120 82/163/82
f 84/180/84 103/188/103 111/178/111 83/173/83
f 85/162/85 101/157/101 103/188/103 84/180/84
f 86/156/86 120/160/120 112/168/112 90/161/90
f 87/137/87 118/133/118 120/160/120 86/156/86
f 88/135/88 116/127/116 118/133/118 87/137/87
f 89/152/89 114/155/114 116/127/116 88/135/88
f 90/161/90 112/168/112 114/155/114 89/152/89
f 91/70/91 96/80/96 92/59/92
f 92/59/92 108/39/108 93/33/93
f 93/33/93 105/13/105 94/32/94
f 94/32/94 102/36/102 95/58/95
f 95/58/95 99/78/99 91/70/91
f 97/98/97 110/91/110 96/80/96
f 98/102/98 117/112/117 97/99/97
f 99/78/99 100/85/100 98/97/98
f 101/157/101 119/136/119 100/116/100
f 102/36/102 103/9/103 101/50/101
f 104/198/104 111/178/111 103/188/103
f 105/13/105 106/4/106 104/3/104
f 107/183/107 113/174/113 106/197/106
f 108/39/108 109/54/109 107/17/107
f 110/108/110 115/130/115 109/140/109
f 112/168/112 120/160/120 111/178/111
f 113/174/113 114/155/114 112/168/112
f 115/130/115 116/127/116 114/155/114
f 117/112/117 118/133/118 116/127/116
f 119/136/119 120/160/120 118/133/118
